<mxfile host="app.diagrams.net" agent="Mozilla/5.0 (Macintosh; Intel Mac OS X 10_15_7) AppleWebKit/537.36 (KHTML, like Gecko) Chrome/127.0.0.0 Safari/537.36" version="24.7.7">
  <diagram name="Page-1" id="C6QzBt6AmBTu_7Bw-_M2">
    <mxGraphModel dx="1180" dy="881" grid="1" gridSize="10" guides="1" tooltips="1" connect="1" arrows="1" fold="1" page="1" pageScale="1" pageWidth="850" pageHeight="1100" math="0" shadow="0">
      <root>
        <mxCell id="0" />
        <mxCell id="1" parent="0" />
        <mxCell id="CRXJROGHJ4yO3ktqUOCc-1" value="(c) shingaridavesh@gmail.com" style="text;html=1;align=center;verticalAlign=middle;whiteSpace=wrap;rounded=0;fontSize=36;fontColor=#f2eeee;rotation=-42;" vertex="1" parent="1">
          <mxGeometry x="110" y="530" width="870" height="30" as="geometry" />
        </mxCell>
        <mxCell id="CRXJROGHJ4yO3ktqUOCc-780" value="" style="rounded=0;whiteSpace=wrap;html=1;fillColor=none;" vertex="1" parent="1">
          <mxGeometry x="77" y="200" width="973" height="320" as="geometry" />
        </mxCell>
        <mxCell id="CRXJROGHJ4yO3ktqUOCc-781" value="" style="rounded=0;whiteSpace=wrap;html=1;fillColor=none;" vertex="1" parent="1">
          <mxGeometry x="77" y="540" width="973" height="320" as="geometry" />
        </mxCell>
        <mxCell id="CRXJROGHJ4yO3ktqUOCc-583" value="" style="endArrow=none;dashed=1;html=1;rounded=0;" edge="1" parent="1">
          <mxGeometry width="50" height="50" relative="1" as="geometry">
            <mxPoint x="305" y="520" as="sourcePoint" />
            <mxPoint x="305" y="200" as="targetPoint" />
          </mxGeometry>
        </mxCell>
        <mxCell id="CRXJROGHJ4yO3ktqUOCc-114" value="" style="endArrow=none;dashed=1;html=1;rounded=0;" edge="1" parent="1">
          <mxGeometry width="50" height="50" relative="1" as="geometry">
            <mxPoint x="365" y="520" as="sourcePoint" />
            <mxPoint x="365" y="200" as="targetPoint" />
          </mxGeometry>
        </mxCell>
        <mxCell id="CRXJROGHJ4yO3ktqUOCc-115" value="" style="endArrow=none;dashed=1;html=1;rounded=0;" edge="1" parent="1">
          <mxGeometry width="50" height="50" relative="1" as="geometry">
            <mxPoint x="425" y="520" as="sourcePoint" />
            <mxPoint x="425" y="200" as="targetPoint" />
          </mxGeometry>
        </mxCell>
        <mxCell id="CRXJROGHJ4yO3ktqUOCc-116" value="" style="endArrow=none;dashed=1;html=1;rounded=0;" edge="1" parent="1">
          <mxGeometry width="50" height="50" relative="1" as="geometry">
            <mxPoint x="485" y="520" as="sourcePoint" />
            <mxPoint x="485" y="200" as="targetPoint" />
          </mxGeometry>
        </mxCell>
        <mxCell id="CRXJROGHJ4yO3ktqUOCc-117" value="" style="endArrow=none;dashed=1;html=1;rounded=0;" edge="1" parent="1">
          <mxGeometry width="50" height="50" relative="1" as="geometry">
            <mxPoint x="545" y="520" as="sourcePoint" />
            <mxPoint x="545" y="200" as="targetPoint" />
          </mxGeometry>
        </mxCell>
        <mxCell id="CRXJROGHJ4yO3ktqUOCc-118" value="" style="endArrow=none;dashed=1;html=1;rounded=0;" edge="1" parent="1">
          <mxGeometry width="50" height="50" relative="1" as="geometry">
            <mxPoint x="605" y="520" as="sourcePoint" />
            <mxPoint x="605" y="200" as="targetPoint" />
          </mxGeometry>
        </mxCell>
        <mxCell id="CRXJROGHJ4yO3ktqUOCc-119" value="" style="endArrow=none;dashed=1;html=1;rounded=0;" edge="1" parent="1">
          <mxGeometry width="50" height="50" relative="1" as="geometry">
            <mxPoint x="665" y="520" as="sourcePoint" />
            <mxPoint x="665" y="200" as="targetPoint" />
          </mxGeometry>
        </mxCell>
        <mxCell id="CRXJROGHJ4yO3ktqUOCc-261" value="" style="endArrow=none;dashed=1;html=1;rounded=0;" edge="1" parent="1" target="CRXJROGHJ4yO3ktqUOCc-262">
          <mxGeometry width="50" height="50" relative="1" as="geometry">
            <mxPoint x="185" y="520" as="sourcePoint" />
            <mxPoint x="185" y="210" as="targetPoint" />
          </mxGeometry>
        </mxCell>
        <mxCell id="CRXJROGHJ4yO3ktqUOCc-585" value="" style="endArrow=none;dashed=1;html=1;rounded=0;" edge="1" parent="1" source="CRXJROGHJ4yO3ktqUOCc-589">
          <mxGeometry width="50" height="50" relative="1" as="geometry">
            <mxPoint x="245" y="520" as="sourcePoint" />
            <mxPoint x="244.5" y="350" as="targetPoint" />
          </mxGeometry>
        </mxCell>
        <mxCell id="CRXJROGHJ4yO3ktqUOCc-120" value="" style="endArrow=none;dashed=1;html=1;rounded=0;" edge="1" parent="1">
          <mxGeometry width="50" height="50" relative="1" as="geometry">
            <mxPoint x="725" y="520" as="sourcePoint" />
            <mxPoint x="725" y="200" as="targetPoint" />
          </mxGeometry>
        </mxCell>
        <mxCell id="CRXJROGHJ4yO3ktqUOCc-121" value="" style="endArrow=none;dashed=1;html=1;rounded=0;" edge="1" parent="1">
          <mxGeometry width="50" height="50" relative="1" as="geometry">
            <mxPoint x="785" y="520" as="sourcePoint" />
            <mxPoint x="785" y="200" as="targetPoint" />
          </mxGeometry>
        </mxCell>
        <mxCell id="CRXJROGHJ4yO3ktqUOCc-122" value="" style="endArrow=none;dashed=1;html=1;rounded=0;" edge="1" parent="1">
          <mxGeometry width="50" height="50" relative="1" as="geometry">
            <mxPoint x="845" y="520" as="sourcePoint" />
            <mxPoint x="845" y="200" as="targetPoint" />
          </mxGeometry>
        </mxCell>
        <mxCell id="CRXJROGHJ4yO3ktqUOCc-290" value="" style="endArrow=none;dashed=1;html=1;rounded=0;" edge="1" parent="1">
          <mxGeometry width="50" height="50" relative="1" as="geometry">
            <mxPoint x="905" y="520" as="sourcePoint" />
            <mxPoint x="904.5" y="200" as="targetPoint" />
          </mxGeometry>
        </mxCell>
        <mxCell id="CRXJROGHJ4yO3ktqUOCc-291" value="" style="endArrow=none;dashed=1;html=1;rounded=0;" edge="1" parent="1">
          <mxGeometry width="50" height="50" relative="1" as="geometry">
            <mxPoint x="965" y="530" as="sourcePoint" />
            <mxPoint x="964.5" y="200" as="targetPoint" />
          </mxGeometry>
        </mxCell>
        <mxCell id="CRXJROGHJ4yO3ktqUOCc-2" value="" style="endArrow=classic;html=1;rounded=0;strokeColor=#0a0a0a;strokeWidth=3;endFill=1;" edge="1" parent="1">
          <mxGeometry width="50" height="50" relative="1" as="geometry">
            <mxPoint x="175" y="290" as="sourcePoint" />
            <mxPoint x="195" y="250" as="targetPoint" />
          </mxGeometry>
        </mxCell>
        <mxCell id="CRXJROGHJ4yO3ktqUOCc-3" value="" style="endArrow=none;html=1;rounded=0;strokeColor=#0a0a0a;strokeWidth=3;" edge="1" parent="1">
          <mxGeometry width="50" height="50" relative="1" as="geometry">
            <mxPoint x="195" y="250" as="sourcePoint" />
            <mxPoint x="235" y="250" as="targetPoint" />
          </mxGeometry>
        </mxCell>
        <mxCell id="CRXJROGHJ4yO3ktqUOCc-4" value="" style="endArrow=none;html=1;rounded=0;strokeColor=#0a0a0a;strokeWidth=3;" edge="1" parent="1">
          <mxGeometry width="50" height="50" relative="1" as="geometry">
            <mxPoint x="255" y="290" as="sourcePoint" />
            <mxPoint x="235" y="250" as="targetPoint" />
          </mxGeometry>
        </mxCell>
        <mxCell id="CRXJROGHJ4yO3ktqUOCc-5" value="" style="endArrow=none;html=1;rounded=0;strokeColor=#0a0a0a;strokeWidth=3;" edge="1" parent="1">
          <mxGeometry width="50" height="50" relative="1" as="geometry">
            <mxPoint x="255" y="290" as="sourcePoint" />
            <mxPoint x="295" y="290" as="targetPoint" />
          </mxGeometry>
        </mxCell>
        <mxCell id="CRXJROGHJ4yO3ktqUOCc-6" value="" style="endArrow=classic;html=1;rounded=0;strokeColor=#0a0a0a;strokeWidth=3;endFill=1;" edge="1" parent="1">
          <mxGeometry width="50" height="50" relative="1" as="geometry">
            <mxPoint x="295" y="290" as="sourcePoint" />
            <mxPoint x="315" y="250" as="targetPoint" />
          </mxGeometry>
        </mxCell>
        <mxCell id="CRXJROGHJ4yO3ktqUOCc-7" value="" style="endArrow=none;html=1;rounded=0;strokeColor=#0a0a0a;strokeWidth=3;" edge="1" parent="1">
          <mxGeometry width="50" height="50" relative="1" as="geometry">
            <mxPoint x="315" y="250" as="sourcePoint" />
            <mxPoint x="355" y="250" as="targetPoint" />
          </mxGeometry>
        </mxCell>
        <mxCell id="CRXJROGHJ4yO3ktqUOCc-8" value="" style="endArrow=none;html=1;rounded=0;strokeColor=#0a0a0a;strokeWidth=3;" edge="1" parent="1">
          <mxGeometry width="50" height="50" relative="1" as="geometry">
            <mxPoint x="375" y="290" as="sourcePoint" />
            <mxPoint x="355" y="250" as="targetPoint" />
          </mxGeometry>
        </mxCell>
        <mxCell id="CRXJROGHJ4yO3ktqUOCc-9" value="" style="endArrow=none;html=1;rounded=0;strokeColor=#0a0a0a;strokeWidth=3;" edge="1" parent="1">
          <mxGeometry width="50" height="50" relative="1" as="geometry">
            <mxPoint x="375" y="290" as="sourcePoint" />
            <mxPoint x="415" y="290" as="targetPoint" />
          </mxGeometry>
        </mxCell>
        <mxCell id="CRXJROGHJ4yO3ktqUOCc-10" value="" style="endArrow=classic;html=1;rounded=0;strokeColor=#0a0a0a;strokeWidth=3;endFill=1;" edge="1" parent="1">
          <mxGeometry width="50" height="50" relative="1" as="geometry">
            <mxPoint x="415" y="290" as="sourcePoint" />
            <mxPoint x="435" y="250" as="targetPoint" />
          </mxGeometry>
        </mxCell>
        <mxCell id="CRXJROGHJ4yO3ktqUOCc-11" value="" style="endArrow=none;html=1;rounded=0;strokeColor=#0a0a0a;strokeWidth=3;" edge="1" parent="1">
          <mxGeometry width="50" height="50" relative="1" as="geometry">
            <mxPoint x="435" y="250" as="sourcePoint" />
            <mxPoint x="475" y="250" as="targetPoint" />
          </mxGeometry>
        </mxCell>
        <mxCell id="CRXJROGHJ4yO3ktqUOCc-12" value="" style="endArrow=none;html=1;rounded=0;strokeColor=#0a0a0a;strokeWidth=3;" edge="1" parent="1">
          <mxGeometry width="50" height="50" relative="1" as="geometry">
            <mxPoint x="495" y="290" as="sourcePoint" />
            <mxPoint x="475" y="250" as="targetPoint" />
          </mxGeometry>
        </mxCell>
        <mxCell id="CRXJROGHJ4yO3ktqUOCc-13" value="" style="endArrow=none;html=1;rounded=0;strokeColor=#0a0a0a;strokeWidth=3;" edge="1" parent="1">
          <mxGeometry width="50" height="50" relative="1" as="geometry">
            <mxPoint x="495" y="290" as="sourcePoint" />
            <mxPoint x="535" y="290" as="targetPoint" />
          </mxGeometry>
        </mxCell>
        <mxCell id="CRXJROGHJ4yO3ktqUOCc-14" value="" style="endArrow=classic;html=1;rounded=0;strokeColor=#0a0a0a;strokeWidth=3;endFill=1;" edge="1" parent="1">
          <mxGeometry width="50" height="50" relative="1" as="geometry">
            <mxPoint x="535" y="290" as="sourcePoint" />
            <mxPoint x="555" y="250" as="targetPoint" />
          </mxGeometry>
        </mxCell>
        <mxCell id="CRXJROGHJ4yO3ktqUOCc-15" value="" style="endArrow=none;html=1;rounded=0;strokeColor=#0a0a0a;strokeWidth=3;" edge="1" parent="1">
          <mxGeometry width="50" height="50" relative="1" as="geometry">
            <mxPoint x="555" y="250" as="sourcePoint" />
            <mxPoint x="595" y="250" as="targetPoint" />
          </mxGeometry>
        </mxCell>
        <mxCell id="CRXJROGHJ4yO3ktqUOCc-16" value="" style="endArrow=none;html=1;rounded=0;strokeColor=#0a0a0a;strokeWidth=3;" edge="1" parent="1">
          <mxGeometry width="50" height="50" relative="1" as="geometry">
            <mxPoint x="615" y="290" as="sourcePoint" />
            <mxPoint x="595" y="250" as="targetPoint" />
          </mxGeometry>
        </mxCell>
        <mxCell id="CRXJROGHJ4yO3ktqUOCc-17" value="" style="endArrow=none;html=1;rounded=0;strokeColor=#0a0a0a;strokeWidth=3;" edge="1" parent="1">
          <mxGeometry width="50" height="50" relative="1" as="geometry">
            <mxPoint x="615" y="290" as="sourcePoint" />
            <mxPoint x="655" y="290" as="targetPoint" />
          </mxGeometry>
        </mxCell>
        <mxCell id="CRXJROGHJ4yO3ktqUOCc-18" value="" style="endArrow=classic;html=1;rounded=0;strokeColor=#0a0a0a;strokeWidth=3;endFill=1;" edge="1" parent="1">
          <mxGeometry width="50" height="50" relative="1" as="geometry">
            <mxPoint x="655" y="290" as="sourcePoint" />
            <mxPoint x="675" y="250" as="targetPoint" />
          </mxGeometry>
        </mxCell>
        <mxCell id="CRXJROGHJ4yO3ktqUOCc-19" value="" style="endArrow=none;html=1;rounded=0;strokeColor=#0a0a0a;strokeWidth=3;" edge="1" parent="1">
          <mxGeometry width="50" height="50" relative="1" as="geometry">
            <mxPoint x="135" y="290" as="sourcePoint" />
            <mxPoint x="175" y="290" as="targetPoint" />
          </mxGeometry>
        </mxCell>
        <mxCell id="CRXJROGHJ4yO3ktqUOCc-20" value="" style="endArrow=none;html=1;rounded=0;strokeColor=#0a0a0a;strokeWidth=3;dashed=1;" edge="1" parent="1">
          <mxGeometry width="50" height="50" relative="1" as="geometry">
            <mxPoint x="136" y="250" as="sourcePoint" />
            <mxPoint x="176" y="250" as="targetPoint" />
          </mxGeometry>
        </mxCell>
        <mxCell id="CRXJROGHJ4yO3ktqUOCc-21" value="" style="endArrow=none;html=1;rounded=0;strokeColor=#0a0a0a;strokeWidth=3;dashed=1;" edge="1" parent="1">
          <mxGeometry width="50" height="50" relative="1" as="geometry">
            <mxPoint x="196" y="290" as="sourcePoint" />
            <mxPoint x="176" y="250" as="targetPoint" />
          </mxGeometry>
        </mxCell>
        <mxCell id="CRXJROGHJ4yO3ktqUOCc-22" value="" style="endArrow=none;html=1;rounded=0;strokeColor=#0a0a0a;strokeWidth=3;dashed=1;" edge="1" parent="1">
          <mxGeometry width="50" height="50" relative="1" as="geometry">
            <mxPoint x="196" y="290" as="sourcePoint" />
            <mxPoint x="236" y="290" as="targetPoint" />
          </mxGeometry>
        </mxCell>
        <mxCell id="CRXJROGHJ4yO3ktqUOCc-23" value="" style="endArrow=none;html=1;rounded=0;strokeColor=#0a0a0a;strokeWidth=3;dashed=1;" edge="1" parent="1">
          <mxGeometry width="50" height="50" relative="1" as="geometry">
            <mxPoint x="236" y="290" as="sourcePoint" />
            <mxPoint x="256" y="250" as="targetPoint" />
          </mxGeometry>
        </mxCell>
        <mxCell id="CRXJROGHJ4yO3ktqUOCc-24" value="" style="endArrow=none;html=1;rounded=0;strokeColor=#0a0a0a;strokeWidth=3;dashed=1;" edge="1" parent="1">
          <mxGeometry width="50" height="50" relative="1" as="geometry">
            <mxPoint x="256" y="250" as="sourcePoint" />
            <mxPoint x="296" y="250" as="targetPoint" />
          </mxGeometry>
        </mxCell>
        <mxCell id="CRXJROGHJ4yO3ktqUOCc-25" value="" style="endArrow=none;html=1;rounded=0;strokeColor=#0a0a0a;strokeWidth=3;dashed=1;" edge="1" parent="1">
          <mxGeometry width="50" height="50" relative="1" as="geometry">
            <mxPoint x="316" y="290" as="sourcePoint" />
            <mxPoint x="296" y="250" as="targetPoint" />
          </mxGeometry>
        </mxCell>
        <mxCell id="CRXJROGHJ4yO3ktqUOCc-26" value="" style="endArrow=none;html=1;rounded=0;strokeColor=#0a0a0a;strokeWidth=3;dashed=1;" edge="1" parent="1">
          <mxGeometry width="50" height="50" relative="1" as="geometry">
            <mxPoint x="316" y="290" as="sourcePoint" />
            <mxPoint x="356" y="290" as="targetPoint" />
          </mxGeometry>
        </mxCell>
        <mxCell id="CRXJROGHJ4yO3ktqUOCc-27" value="" style="endArrow=none;html=1;rounded=0;strokeColor=#0a0a0a;strokeWidth=3;dashed=1;" edge="1" parent="1">
          <mxGeometry width="50" height="50" relative="1" as="geometry">
            <mxPoint x="356" y="290" as="sourcePoint" />
            <mxPoint x="376" y="250" as="targetPoint" />
          </mxGeometry>
        </mxCell>
        <mxCell id="CRXJROGHJ4yO3ktqUOCc-28" value="" style="endArrow=none;html=1;rounded=0;strokeColor=#0a0a0a;strokeWidth=3;dashed=1;" edge="1" parent="1">
          <mxGeometry width="50" height="50" relative="1" as="geometry">
            <mxPoint x="376" y="250" as="sourcePoint" />
            <mxPoint x="416" y="250" as="targetPoint" />
          </mxGeometry>
        </mxCell>
        <mxCell id="CRXJROGHJ4yO3ktqUOCc-29" value="" style="endArrow=none;html=1;rounded=0;strokeColor=#0a0a0a;strokeWidth=3;dashed=1;" edge="1" parent="1">
          <mxGeometry width="50" height="50" relative="1" as="geometry">
            <mxPoint x="436" y="290" as="sourcePoint" />
            <mxPoint x="416" y="250" as="targetPoint" />
          </mxGeometry>
        </mxCell>
        <mxCell id="CRXJROGHJ4yO3ktqUOCc-30" value="" style="endArrow=none;html=1;rounded=0;strokeColor=#0a0a0a;strokeWidth=3;dashed=1;" edge="1" parent="1">
          <mxGeometry width="50" height="50" relative="1" as="geometry">
            <mxPoint x="436" y="290" as="sourcePoint" />
            <mxPoint x="476" y="290" as="targetPoint" />
          </mxGeometry>
        </mxCell>
        <mxCell id="CRXJROGHJ4yO3ktqUOCc-31" value="" style="endArrow=none;html=1;rounded=0;strokeColor=#0a0a0a;strokeWidth=3;dashed=1;" edge="1" parent="1">
          <mxGeometry width="50" height="50" relative="1" as="geometry">
            <mxPoint x="476" y="290" as="sourcePoint" />
            <mxPoint x="496" y="250" as="targetPoint" />
          </mxGeometry>
        </mxCell>
        <mxCell id="CRXJROGHJ4yO3ktqUOCc-32" value="" style="endArrow=none;html=1;rounded=0;strokeColor=#0a0a0a;strokeWidth=3;dashed=1;" edge="1" parent="1">
          <mxGeometry width="50" height="50" relative="1" as="geometry">
            <mxPoint x="496" y="250" as="sourcePoint" />
            <mxPoint x="536" y="250" as="targetPoint" />
          </mxGeometry>
        </mxCell>
        <mxCell id="CRXJROGHJ4yO3ktqUOCc-33" value="" style="endArrow=none;html=1;rounded=0;strokeColor=#0a0a0a;strokeWidth=3;dashed=1;" edge="1" parent="1">
          <mxGeometry width="50" height="50" relative="1" as="geometry">
            <mxPoint x="556" y="290" as="sourcePoint" />
            <mxPoint x="536" y="250" as="targetPoint" />
          </mxGeometry>
        </mxCell>
        <mxCell id="CRXJROGHJ4yO3ktqUOCc-34" value="" style="endArrow=none;html=1;rounded=0;strokeColor=#0a0a0a;strokeWidth=3;dashed=1;" edge="1" parent="1">
          <mxGeometry width="50" height="50" relative="1" as="geometry">
            <mxPoint x="556" y="290" as="sourcePoint" />
            <mxPoint x="596" y="290" as="targetPoint" />
          </mxGeometry>
        </mxCell>
        <mxCell id="CRXJROGHJ4yO3ktqUOCc-35" value="" style="endArrow=none;html=1;rounded=0;strokeColor=#0a0a0a;strokeWidth=3;dashed=1;" edge="1" parent="1">
          <mxGeometry width="50" height="50" relative="1" as="geometry">
            <mxPoint x="596" y="290" as="sourcePoint" />
            <mxPoint x="616" y="250" as="targetPoint" />
          </mxGeometry>
        </mxCell>
        <mxCell id="CRXJROGHJ4yO3ktqUOCc-36" value="" style="endArrow=none;html=1;rounded=0;strokeColor=#0a0a0a;strokeWidth=3;dashed=1;" edge="1" parent="1">
          <mxGeometry width="50" height="50" relative="1" as="geometry">
            <mxPoint x="615" y="250" as="sourcePoint" />
            <mxPoint x="655" y="250" as="targetPoint" />
          </mxGeometry>
        </mxCell>
        <mxCell id="CRXJROGHJ4yO3ktqUOCc-37" value="" style="endArrow=none;html=1;rounded=0;strokeColor=#0a0a0a;strokeWidth=3;dashed=1;" edge="1" parent="1">
          <mxGeometry width="50" height="50" relative="1" as="geometry">
            <mxPoint x="675" y="290" as="sourcePoint" />
            <mxPoint x="655" y="250" as="targetPoint" />
          </mxGeometry>
        </mxCell>
        <mxCell id="CRXJROGHJ4yO3ktqUOCc-38" value="" style="endArrow=none;html=1;rounded=0;strokeColor=#160160;strokeWidth=3;" edge="1" parent="1">
          <mxGeometry width="50" height="50" relative="1" as="geometry">
            <mxPoint x="164" y="350" as="sourcePoint" />
            <mxPoint x="144" y="310" as="targetPoint" />
          </mxGeometry>
        </mxCell>
        <mxCell id="CRXJROGHJ4yO3ktqUOCc-39" value="" style="endArrow=none;html=1;rounded=0;strokeColor=#160160;strokeWidth=3;" edge="1" parent="1">
          <mxGeometry width="50" height="50" relative="1" as="geometry">
            <mxPoint x="164" y="350" as="sourcePoint" />
            <mxPoint x="204" y="350" as="targetPoint" />
          </mxGeometry>
        </mxCell>
        <mxCell id="CRXJROGHJ4yO3ktqUOCc-40" value="" style="endArrow=none;html=1;rounded=0;strokeColor=#160160;strokeWidth=3;" edge="1" parent="1">
          <mxGeometry width="50" height="50" relative="1" as="geometry">
            <mxPoint x="204" y="350" as="sourcePoint" />
            <mxPoint x="224" y="310" as="targetPoint" />
          </mxGeometry>
        </mxCell>
        <mxCell id="CRXJROGHJ4yO3ktqUOCc-41" value="" style="endArrow=none;html=1;rounded=0;strokeColor=#160160;strokeWidth=3;" edge="1" parent="1">
          <mxGeometry width="50" height="50" relative="1" as="geometry">
            <mxPoint x="224" y="310" as="sourcePoint" />
            <mxPoint x="264" y="310" as="targetPoint" />
          </mxGeometry>
        </mxCell>
        <mxCell id="CRXJROGHJ4yO3ktqUOCc-42" value="" style="endArrow=none;html=1;rounded=0;strokeColor=#160160;strokeWidth=3;" edge="1" parent="1">
          <mxGeometry width="50" height="50" relative="1" as="geometry">
            <mxPoint x="284" y="350" as="sourcePoint" />
            <mxPoint x="264" y="310" as="targetPoint" />
          </mxGeometry>
        </mxCell>
        <mxCell id="CRXJROGHJ4yO3ktqUOCc-43" value="" style="endArrow=none;html=1;rounded=0;strokeColor=#160160;strokeWidth=3;" edge="1" parent="1">
          <mxGeometry width="50" height="50" relative="1" as="geometry">
            <mxPoint x="284" y="350" as="sourcePoint" />
            <mxPoint x="324" y="350" as="targetPoint" />
          </mxGeometry>
        </mxCell>
        <mxCell id="CRXJROGHJ4yO3ktqUOCc-44" value="" style="endArrow=none;html=1;rounded=0;strokeColor=#160160;strokeWidth=3;" edge="1" parent="1">
          <mxGeometry width="50" height="50" relative="1" as="geometry">
            <mxPoint x="324" y="350" as="sourcePoint" />
            <mxPoint x="344" y="310" as="targetPoint" />
          </mxGeometry>
        </mxCell>
        <mxCell id="CRXJROGHJ4yO3ktqUOCc-45" value="" style="endArrow=none;html=1;rounded=0;strokeColor=#160160;strokeWidth=3;" edge="1" parent="1">
          <mxGeometry width="50" height="50" relative="1" as="geometry">
            <mxPoint x="344" y="310" as="sourcePoint" />
            <mxPoint x="384" y="310" as="targetPoint" />
          </mxGeometry>
        </mxCell>
        <mxCell id="CRXJROGHJ4yO3ktqUOCc-46" value="" style="endArrow=none;html=1;rounded=0;strokeColor=#160160;strokeWidth=3;" edge="1" parent="1">
          <mxGeometry width="50" height="50" relative="1" as="geometry">
            <mxPoint x="404" y="350" as="sourcePoint" />
            <mxPoint x="384" y="310" as="targetPoint" />
          </mxGeometry>
        </mxCell>
        <mxCell id="CRXJROGHJ4yO3ktqUOCc-47" value="" style="endArrow=none;html=1;rounded=0;strokeColor=#160160;strokeWidth=3;" edge="1" parent="1">
          <mxGeometry width="50" height="50" relative="1" as="geometry">
            <mxPoint x="404" y="350" as="sourcePoint" />
            <mxPoint x="444" y="350" as="targetPoint" />
          </mxGeometry>
        </mxCell>
        <mxCell id="CRXJROGHJ4yO3ktqUOCc-48" value="" style="endArrow=none;html=1;rounded=0;strokeColor=#160160;strokeWidth=3;" edge="1" parent="1">
          <mxGeometry width="50" height="50" relative="1" as="geometry">
            <mxPoint x="444" y="350" as="sourcePoint" />
            <mxPoint x="464" y="310" as="targetPoint" />
          </mxGeometry>
        </mxCell>
        <mxCell id="CRXJROGHJ4yO3ktqUOCc-49" value="" style="endArrow=none;html=1;rounded=0;strokeColor=#160160;strokeWidth=3;" edge="1" parent="1">
          <mxGeometry width="50" height="50" relative="1" as="geometry">
            <mxPoint x="464" y="310" as="sourcePoint" />
            <mxPoint x="504" y="310" as="targetPoint" />
          </mxGeometry>
        </mxCell>
        <mxCell id="CRXJROGHJ4yO3ktqUOCc-50" value="" style="endArrow=none;html=1;rounded=0;strokeColor=#160160;strokeWidth=3;" edge="1" parent="1">
          <mxGeometry width="50" height="50" relative="1" as="geometry">
            <mxPoint x="145" y="350" as="sourcePoint" />
            <mxPoint x="165" y="310" as="targetPoint" />
          </mxGeometry>
        </mxCell>
        <mxCell id="CRXJROGHJ4yO3ktqUOCc-51" value="" style="endArrow=none;html=1;rounded=0;strokeColor=#160160;strokeWidth=3;" edge="1" parent="1">
          <mxGeometry width="50" height="50" relative="1" as="geometry">
            <mxPoint x="165" y="310" as="sourcePoint" />
            <mxPoint x="205" y="310" as="targetPoint" />
          </mxGeometry>
        </mxCell>
        <mxCell id="CRXJROGHJ4yO3ktqUOCc-52" value="" style="endArrow=none;html=1;rounded=0;strokeColor=#160160;strokeWidth=3;" edge="1" parent="1">
          <mxGeometry width="50" height="50" relative="1" as="geometry">
            <mxPoint x="225" y="350" as="sourcePoint" />
            <mxPoint x="205" y="310" as="targetPoint" />
          </mxGeometry>
        </mxCell>
        <mxCell id="CRXJROGHJ4yO3ktqUOCc-53" value="" style="endArrow=none;html=1;rounded=0;strokeColor=#160160;strokeWidth=3;" edge="1" parent="1">
          <mxGeometry width="50" height="50" relative="1" as="geometry">
            <mxPoint x="225" y="350" as="sourcePoint" />
            <mxPoint x="265" y="350" as="targetPoint" />
          </mxGeometry>
        </mxCell>
        <mxCell id="CRXJROGHJ4yO3ktqUOCc-54" value="" style="endArrow=none;html=1;rounded=0;strokeColor=#160160;strokeWidth=3;" edge="1" parent="1">
          <mxGeometry width="50" height="50" relative="1" as="geometry">
            <mxPoint x="265" y="350" as="sourcePoint" />
            <mxPoint x="285" y="310" as="targetPoint" />
          </mxGeometry>
        </mxCell>
        <mxCell id="CRXJROGHJ4yO3ktqUOCc-55" value="" style="endArrow=none;html=1;rounded=0;strokeColor=#160160;strokeWidth=3;" edge="1" parent="1">
          <mxGeometry width="50" height="50" relative="1" as="geometry">
            <mxPoint x="285" y="310" as="sourcePoint" />
            <mxPoint x="325" y="310" as="targetPoint" />
          </mxGeometry>
        </mxCell>
        <mxCell id="CRXJROGHJ4yO3ktqUOCc-56" value="" style="endArrow=none;html=1;rounded=0;strokeColor=#160160;strokeWidth=3;" edge="1" parent="1">
          <mxGeometry width="50" height="50" relative="1" as="geometry">
            <mxPoint x="345" y="350" as="sourcePoint" />
            <mxPoint x="325" y="310" as="targetPoint" />
          </mxGeometry>
        </mxCell>
        <mxCell id="CRXJROGHJ4yO3ktqUOCc-57" value="" style="endArrow=none;html=1;rounded=0;strokeColor=#160160;strokeWidth=3;" edge="1" parent="1">
          <mxGeometry width="50" height="50" relative="1" as="geometry">
            <mxPoint x="345" y="350" as="sourcePoint" />
            <mxPoint x="385" y="350" as="targetPoint" />
          </mxGeometry>
        </mxCell>
        <mxCell id="CRXJROGHJ4yO3ktqUOCc-58" value="" style="endArrow=none;html=1;rounded=0;strokeColor=#160160;strokeWidth=3;" edge="1" parent="1">
          <mxGeometry width="50" height="50" relative="1" as="geometry">
            <mxPoint x="385" y="350" as="sourcePoint" />
            <mxPoint x="405" y="310" as="targetPoint" />
          </mxGeometry>
        </mxCell>
        <mxCell id="CRXJROGHJ4yO3ktqUOCc-59" value="" style="endArrow=none;html=1;rounded=0;strokeColor=#160160;strokeWidth=3;" edge="1" parent="1">
          <mxGeometry width="50" height="50" relative="1" as="geometry">
            <mxPoint x="405" y="310" as="sourcePoint" />
            <mxPoint x="445" y="310" as="targetPoint" />
          </mxGeometry>
        </mxCell>
        <mxCell id="CRXJROGHJ4yO3ktqUOCc-60" value="" style="endArrow=none;html=1;rounded=0;strokeColor=#160160;strokeWidth=3;" edge="1" parent="1">
          <mxGeometry width="50" height="50" relative="1" as="geometry">
            <mxPoint x="465" y="350" as="sourcePoint" />
            <mxPoint x="445" y="310" as="targetPoint" />
          </mxGeometry>
        </mxCell>
        <mxCell id="CRXJROGHJ4yO3ktqUOCc-61" value="" style="endArrow=none;html=1;rounded=0;strokeColor=#160160;strokeWidth=3;" edge="1" parent="1">
          <mxGeometry width="50" height="50" relative="1" as="geometry">
            <mxPoint x="465" y="350" as="sourcePoint" />
            <mxPoint x="505" y="350" as="targetPoint" />
          </mxGeometry>
        </mxCell>
        <mxCell id="CRXJROGHJ4yO3ktqUOCc-62" value="" style="endArrow=none;html=1;rounded=0;strokeColor=#160160;strokeWidth=3;" edge="1" parent="1">
          <mxGeometry width="50" height="50" relative="1" as="geometry">
            <mxPoint x="523" y="350" as="sourcePoint" />
            <mxPoint x="503" y="310" as="targetPoint" />
          </mxGeometry>
        </mxCell>
        <mxCell id="CRXJROGHJ4yO3ktqUOCc-63" value="" style="endArrow=none;html=1;rounded=0;strokeColor=#160160;strokeWidth=3;" edge="1" parent="1">
          <mxGeometry width="50" height="50" relative="1" as="geometry">
            <mxPoint x="523" y="350" as="sourcePoint" />
            <mxPoint x="563" y="350" as="targetPoint" />
          </mxGeometry>
        </mxCell>
        <mxCell id="CRXJROGHJ4yO3ktqUOCc-64" value="" style="endArrow=none;html=1;rounded=0;strokeColor=#160160;strokeWidth=3;" edge="1" parent="1">
          <mxGeometry width="50" height="50" relative="1" as="geometry">
            <mxPoint x="563" y="350" as="sourcePoint" />
            <mxPoint x="583" y="310" as="targetPoint" />
          </mxGeometry>
        </mxCell>
        <mxCell id="CRXJROGHJ4yO3ktqUOCc-65" value="" style="endArrow=none;html=1;rounded=0;strokeColor=#160160;strokeWidth=3;" edge="1" parent="1">
          <mxGeometry width="50" height="50" relative="1" as="geometry">
            <mxPoint x="583" y="310" as="sourcePoint" />
            <mxPoint x="623" y="310" as="targetPoint" />
          </mxGeometry>
        </mxCell>
        <mxCell id="CRXJROGHJ4yO3ktqUOCc-66" value="" style="endArrow=none;html=1;rounded=0;strokeColor=#160160;strokeWidth=3;" edge="1" parent="1">
          <mxGeometry width="50" height="50" relative="1" as="geometry">
            <mxPoint x="643" y="350" as="sourcePoint" />
            <mxPoint x="623" y="310" as="targetPoint" />
          </mxGeometry>
        </mxCell>
        <mxCell id="CRXJROGHJ4yO3ktqUOCc-67" value="" style="endArrow=none;html=1;rounded=0;strokeColor=#160160;strokeWidth=3;" edge="1" parent="1">
          <mxGeometry width="50" height="50" relative="1" as="geometry">
            <mxPoint x="643" y="350" as="sourcePoint" />
            <mxPoint x="683" y="350" as="targetPoint" />
          </mxGeometry>
        </mxCell>
        <mxCell id="CRXJROGHJ4yO3ktqUOCc-68" value="" style="endArrow=none;html=1;rounded=0;strokeColor=#160160;strokeWidth=3;" edge="1" parent="1">
          <mxGeometry width="50" height="50" relative="1" as="geometry">
            <mxPoint x="683" y="350" as="sourcePoint" />
            <mxPoint x="703" y="310" as="targetPoint" />
          </mxGeometry>
        </mxCell>
        <mxCell id="CRXJROGHJ4yO3ktqUOCc-69" value="" style="endArrow=none;html=1;rounded=0;strokeColor=#160160;strokeWidth=3;" edge="1" parent="1">
          <mxGeometry width="50" height="50" relative="1" as="geometry">
            <mxPoint x="703" y="310" as="sourcePoint" />
            <mxPoint x="743" y="310" as="targetPoint" />
          </mxGeometry>
        </mxCell>
        <mxCell id="CRXJROGHJ4yO3ktqUOCc-70" value="" style="endArrow=none;html=1;rounded=0;strokeColor=#160160;strokeWidth=3;" edge="1" parent="1">
          <mxGeometry width="50" height="50" relative="1" as="geometry">
            <mxPoint x="763" y="350" as="sourcePoint" />
            <mxPoint x="743" y="310" as="targetPoint" />
          </mxGeometry>
        </mxCell>
        <mxCell id="CRXJROGHJ4yO3ktqUOCc-71" value="" style="endArrow=none;html=1;rounded=0;strokeColor=#160160;strokeWidth=3;" edge="1" parent="1">
          <mxGeometry width="50" height="50" relative="1" as="geometry">
            <mxPoint x="763" y="350" as="sourcePoint" />
            <mxPoint x="803" y="350" as="targetPoint" />
          </mxGeometry>
        </mxCell>
        <mxCell id="CRXJROGHJ4yO3ktqUOCc-72" value="" style="endArrow=none;html=1;rounded=0;strokeColor=#160160;strokeWidth=3;" edge="1" parent="1">
          <mxGeometry width="50" height="50" relative="1" as="geometry">
            <mxPoint x="803" y="350" as="sourcePoint" />
            <mxPoint x="823" y="310" as="targetPoint" />
          </mxGeometry>
        </mxCell>
        <mxCell id="CRXJROGHJ4yO3ktqUOCc-73" value="" style="endArrow=none;html=1;rounded=0;strokeColor=#160160;strokeWidth=3;" edge="1" parent="1">
          <mxGeometry width="50" height="50" relative="1" as="geometry">
            <mxPoint x="823" y="310" as="sourcePoint" />
            <mxPoint x="863" y="310" as="targetPoint" />
          </mxGeometry>
        </mxCell>
        <mxCell id="CRXJROGHJ4yO3ktqUOCc-74" value="" style="endArrow=none;html=1;rounded=0;strokeColor=#160160;strokeWidth=3;" edge="1" parent="1">
          <mxGeometry width="50" height="50" relative="1" as="geometry">
            <mxPoint x="504" y="350" as="sourcePoint" />
            <mxPoint x="524" y="310" as="targetPoint" />
          </mxGeometry>
        </mxCell>
        <mxCell id="CRXJROGHJ4yO3ktqUOCc-75" value="" style="endArrow=none;html=1;rounded=0;strokeColor=#160160;strokeWidth=3;" edge="1" parent="1">
          <mxGeometry width="50" height="50" relative="1" as="geometry">
            <mxPoint x="524" y="310" as="sourcePoint" />
            <mxPoint x="564" y="310" as="targetPoint" />
          </mxGeometry>
        </mxCell>
        <mxCell id="CRXJROGHJ4yO3ktqUOCc-76" value="" style="endArrow=none;html=1;rounded=0;strokeColor=#160160;strokeWidth=3;" edge="1" parent="1">
          <mxGeometry width="50" height="50" relative="1" as="geometry">
            <mxPoint x="584" y="350" as="sourcePoint" />
            <mxPoint x="564" y="310" as="targetPoint" />
          </mxGeometry>
        </mxCell>
        <mxCell id="CRXJROGHJ4yO3ktqUOCc-77" value="" style="endArrow=none;html=1;rounded=0;strokeColor=#160160;strokeWidth=3;" edge="1" parent="1">
          <mxGeometry width="50" height="50" relative="1" as="geometry">
            <mxPoint x="584" y="350" as="sourcePoint" />
            <mxPoint x="624" y="350" as="targetPoint" />
          </mxGeometry>
        </mxCell>
        <mxCell id="CRXJROGHJ4yO3ktqUOCc-78" value="" style="endArrow=none;html=1;rounded=0;strokeColor=#160160;strokeWidth=3;" edge="1" parent="1">
          <mxGeometry width="50" height="50" relative="1" as="geometry">
            <mxPoint x="624" y="350" as="sourcePoint" />
            <mxPoint x="644" y="310" as="targetPoint" />
          </mxGeometry>
        </mxCell>
        <mxCell id="CRXJROGHJ4yO3ktqUOCc-79" value="" style="endArrow=none;html=1;rounded=0;strokeColor=#160160;strokeWidth=3;" edge="1" parent="1">
          <mxGeometry width="50" height="50" relative="1" as="geometry">
            <mxPoint x="644" y="310" as="sourcePoint" />
            <mxPoint x="684" y="310" as="targetPoint" />
          </mxGeometry>
        </mxCell>
        <mxCell id="CRXJROGHJ4yO3ktqUOCc-80" value="" style="endArrow=none;html=1;rounded=0;strokeColor=#160160;strokeWidth=3;" edge="1" parent="1">
          <mxGeometry width="50" height="50" relative="1" as="geometry">
            <mxPoint x="704" y="350" as="sourcePoint" />
            <mxPoint x="684" y="310" as="targetPoint" />
          </mxGeometry>
        </mxCell>
        <mxCell id="CRXJROGHJ4yO3ktqUOCc-81" value="" style="endArrow=none;html=1;rounded=0;strokeColor=#160160;strokeWidth=3;" edge="1" parent="1">
          <mxGeometry width="50" height="50" relative="1" as="geometry">
            <mxPoint x="704" y="350" as="sourcePoint" />
            <mxPoint x="744" y="350" as="targetPoint" />
          </mxGeometry>
        </mxCell>
        <mxCell id="CRXJROGHJ4yO3ktqUOCc-82" value="" style="endArrow=none;html=1;rounded=0;strokeColor=#160160;strokeWidth=3;" edge="1" parent="1">
          <mxGeometry width="50" height="50" relative="1" as="geometry">
            <mxPoint x="744" y="350" as="sourcePoint" />
            <mxPoint x="764" y="310" as="targetPoint" />
          </mxGeometry>
        </mxCell>
        <mxCell id="CRXJROGHJ4yO3ktqUOCc-83" value="" style="endArrow=none;html=1;rounded=0;strokeColor=#160160;strokeWidth=3;" edge="1" parent="1">
          <mxGeometry width="50" height="50" relative="1" as="geometry">
            <mxPoint x="764" y="310" as="sourcePoint" />
            <mxPoint x="804" y="310" as="targetPoint" />
          </mxGeometry>
        </mxCell>
        <mxCell id="CRXJROGHJ4yO3ktqUOCc-84" value="" style="endArrow=none;html=1;rounded=0;strokeColor=#160160;strokeWidth=3;" edge="1" parent="1">
          <mxGeometry width="50" height="50" relative="1" as="geometry">
            <mxPoint x="824" y="350" as="sourcePoint" />
            <mxPoint x="804" y="310" as="targetPoint" />
          </mxGeometry>
        </mxCell>
        <mxCell id="CRXJROGHJ4yO3ktqUOCc-85" value="" style="endArrow=none;html=1;rounded=0;strokeColor=#160160;strokeWidth=3;" edge="1" parent="1">
          <mxGeometry width="50" height="50" relative="1" as="geometry">
            <mxPoint x="824" y="350" as="sourcePoint" />
            <mxPoint x="864" y="350" as="targetPoint" />
          </mxGeometry>
        </mxCell>
        <mxCell id="CRXJROGHJ4yO3ktqUOCc-86" value="" style="endArrow=none;html=1;rounded=0;strokeColor=#0a0a0a;strokeWidth=3;" edge="1" parent="1">
          <mxGeometry width="50" height="50" relative="1" as="geometry">
            <mxPoint x="675" y="250" as="sourcePoint" />
            <mxPoint x="715" y="250" as="targetPoint" />
          </mxGeometry>
        </mxCell>
        <mxCell id="CRXJROGHJ4yO3ktqUOCc-87" value="" style="endArrow=none;html=1;rounded=0;strokeColor=#0a0a0a;strokeWidth=3;" edge="1" parent="1">
          <mxGeometry width="50" height="50" relative="1" as="geometry">
            <mxPoint x="735" y="290" as="sourcePoint" />
            <mxPoint x="715" y="250" as="targetPoint" />
          </mxGeometry>
        </mxCell>
        <mxCell id="CRXJROGHJ4yO3ktqUOCc-88" value="" style="endArrow=none;html=1;rounded=0;strokeColor=#0a0a0a;strokeWidth=3;" edge="1" parent="1">
          <mxGeometry width="50" height="50" relative="1" as="geometry">
            <mxPoint x="735" y="290" as="sourcePoint" />
            <mxPoint x="775" y="290" as="targetPoint" />
          </mxGeometry>
        </mxCell>
        <mxCell id="CRXJROGHJ4yO3ktqUOCc-89" value="" style="endArrow=classic;html=1;rounded=0;strokeColor=#0a0a0a;strokeWidth=3;endFill=1;" edge="1" parent="1">
          <mxGeometry width="50" height="50" relative="1" as="geometry">
            <mxPoint x="775" y="290" as="sourcePoint" />
            <mxPoint x="795" y="250" as="targetPoint" />
          </mxGeometry>
        </mxCell>
        <mxCell id="CRXJROGHJ4yO3ktqUOCc-90" value="" style="endArrow=none;html=1;rounded=0;strokeColor=#0a0a0a;strokeWidth=3;" edge="1" parent="1">
          <mxGeometry width="50" height="50" relative="1" as="geometry">
            <mxPoint x="795" y="250" as="sourcePoint" />
            <mxPoint x="835" y="250" as="targetPoint" />
          </mxGeometry>
        </mxCell>
        <mxCell id="CRXJROGHJ4yO3ktqUOCc-91" value="" style="endArrow=none;html=1;rounded=0;strokeColor=#0a0a0a;strokeWidth=3;" edge="1" parent="1">
          <mxGeometry width="50" height="50" relative="1" as="geometry">
            <mxPoint x="855" y="290" as="sourcePoint" />
            <mxPoint x="835" y="250" as="targetPoint" />
          </mxGeometry>
        </mxCell>
        <mxCell id="CRXJROGHJ4yO3ktqUOCc-92" value="" style="endArrow=none;html=1;rounded=0;strokeColor=#0a0a0a;strokeWidth=3;" edge="1" parent="1">
          <mxGeometry width="50" height="50" relative="1" as="geometry">
            <mxPoint x="855" y="290" as="sourcePoint" />
            <mxPoint x="895" y="290" as="targetPoint" />
          </mxGeometry>
        </mxCell>
        <mxCell id="CRXJROGHJ4yO3ktqUOCc-93" value="" style="endArrow=classic;html=1;rounded=0;strokeColor=#0a0a0a;strokeWidth=3;endFill=1;" edge="1" parent="1">
          <mxGeometry width="50" height="50" relative="1" as="geometry">
            <mxPoint x="895" y="290" as="sourcePoint" />
            <mxPoint x="915" y="250" as="targetPoint" />
          </mxGeometry>
        </mxCell>
        <mxCell id="CRXJROGHJ4yO3ktqUOCc-94" value="" style="endArrow=none;html=1;rounded=0;strokeColor=#0a0a0a;strokeWidth=3;" edge="1" parent="1">
          <mxGeometry width="50" height="50" relative="1" as="geometry">
            <mxPoint x="915" y="250" as="sourcePoint" />
            <mxPoint x="955" y="250" as="targetPoint" />
          </mxGeometry>
        </mxCell>
        <mxCell id="CRXJROGHJ4yO3ktqUOCc-95" value="" style="endArrow=none;html=1;rounded=0;strokeColor=#0a0a0a;strokeWidth=3;" edge="1" parent="1">
          <mxGeometry width="50" height="50" relative="1" as="geometry">
            <mxPoint x="975" y="290" as="sourcePoint" />
            <mxPoint x="955" y="250" as="targetPoint" />
          </mxGeometry>
        </mxCell>
        <mxCell id="CRXJROGHJ4yO3ktqUOCc-96" value="" style="endArrow=none;html=1;rounded=0;strokeColor=#0a0a0a;strokeWidth=3;" edge="1" parent="1">
          <mxGeometry width="50" height="50" relative="1" as="geometry">
            <mxPoint x="975" y="290" as="sourcePoint" />
            <mxPoint x="1015" y="290" as="targetPoint" />
          </mxGeometry>
        </mxCell>
        <mxCell id="CRXJROGHJ4yO3ktqUOCc-97" value="" style="endArrow=none;html=1;rounded=0;strokeColor=#0a0a0a;strokeWidth=3;dashed=1;" edge="1" parent="1">
          <mxGeometry width="50" height="50" relative="1" as="geometry">
            <mxPoint x="676" y="290" as="sourcePoint" />
            <mxPoint x="716" y="290" as="targetPoint" />
          </mxGeometry>
        </mxCell>
        <mxCell id="CRXJROGHJ4yO3ktqUOCc-98" value="" style="endArrow=none;html=1;rounded=0;strokeColor=#0a0a0a;strokeWidth=3;dashed=1;" edge="1" parent="1">
          <mxGeometry width="50" height="50" relative="1" as="geometry">
            <mxPoint x="716" y="290" as="sourcePoint" />
            <mxPoint x="736" y="250" as="targetPoint" />
          </mxGeometry>
        </mxCell>
        <mxCell id="CRXJROGHJ4yO3ktqUOCc-99" value="" style="endArrow=none;html=1;rounded=0;strokeColor=#0a0a0a;strokeWidth=3;dashed=1;" edge="1" parent="1">
          <mxGeometry width="50" height="50" relative="1" as="geometry">
            <mxPoint x="736" y="250" as="sourcePoint" />
            <mxPoint x="776" y="250" as="targetPoint" />
          </mxGeometry>
        </mxCell>
        <mxCell id="CRXJROGHJ4yO3ktqUOCc-100" value="" style="endArrow=none;html=1;rounded=0;strokeColor=#0a0a0a;strokeWidth=3;dashed=1;" edge="1" parent="1">
          <mxGeometry width="50" height="50" relative="1" as="geometry">
            <mxPoint x="796" y="290" as="sourcePoint" />
            <mxPoint x="776" y="250" as="targetPoint" />
          </mxGeometry>
        </mxCell>
        <mxCell id="CRXJROGHJ4yO3ktqUOCc-101" value="" style="endArrow=none;html=1;rounded=0;strokeColor=#0a0a0a;strokeWidth=3;dashed=1;" edge="1" parent="1">
          <mxGeometry width="50" height="50" relative="1" as="geometry">
            <mxPoint x="796" y="290" as="sourcePoint" />
            <mxPoint x="836" y="290" as="targetPoint" />
          </mxGeometry>
        </mxCell>
        <mxCell id="CRXJROGHJ4yO3ktqUOCc-102" value="" style="endArrow=none;html=1;rounded=0;strokeColor=#0a0a0a;strokeWidth=3;dashed=1;" edge="1" parent="1">
          <mxGeometry width="50" height="50" relative="1" as="geometry">
            <mxPoint x="836" y="290" as="sourcePoint" />
            <mxPoint x="856" y="250" as="targetPoint" />
          </mxGeometry>
        </mxCell>
        <mxCell id="CRXJROGHJ4yO3ktqUOCc-103" value="" style="endArrow=none;html=1;rounded=0;strokeColor=#0a0a0a;strokeWidth=3;dashed=1;" edge="1" parent="1">
          <mxGeometry width="50" height="50" relative="1" as="geometry">
            <mxPoint x="856" y="250" as="sourcePoint" />
            <mxPoint x="896" y="250" as="targetPoint" />
          </mxGeometry>
        </mxCell>
        <mxCell id="CRXJROGHJ4yO3ktqUOCc-104" value="" style="endArrow=none;html=1;rounded=0;strokeColor=#0a0a0a;strokeWidth=3;dashed=1;" edge="1" parent="1">
          <mxGeometry width="50" height="50" relative="1" as="geometry">
            <mxPoint x="916" y="290" as="sourcePoint" />
            <mxPoint x="896" y="250" as="targetPoint" />
          </mxGeometry>
        </mxCell>
        <mxCell id="CRXJROGHJ4yO3ktqUOCc-105" value="" style="endArrow=none;html=1;rounded=0;strokeColor=#0a0a0a;strokeWidth=3;dashed=1;" edge="1" parent="1">
          <mxGeometry width="50" height="50" relative="1" as="geometry">
            <mxPoint x="916" y="290" as="sourcePoint" />
            <mxPoint x="956" y="290" as="targetPoint" />
          </mxGeometry>
        </mxCell>
        <mxCell id="CRXJROGHJ4yO3ktqUOCc-106" value="" style="endArrow=none;html=1;rounded=0;strokeColor=#0a0a0a;strokeWidth=3;dashed=1;" edge="1" parent="1">
          <mxGeometry width="50" height="50" relative="1" as="geometry">
            <mxPoint x="956" y="290" as="sourcePoint" />
            <mxPoint x="976" y="250" as="targetPoint" />
          </mxGeometry>
        </mxCell>
        <mxCell id="CRXJROGHJ4yO3ktqUOCc-107" value="" style="endArrow=none;html=1;rounded=0;strokeColor=#0a0a0a;strokeWidth=3;dashed=1;" edge="1" parent="1">
          <mxGeometry width="50" height="50" relative="1" as="geometry">
            <mxPoint x="976" y="250" as="sourcePoint" />
            <mxPoint x="1016" y="250" as="targetPoint" />
          </mxGeometry>
        </mxCell>
        <mxCell id="CRXJROGHJ4yO3ktqUOCc-108" value="DQS_c" style="text;html=1;align=center;verticalAlign=middle;whiteSpace=wrap;rounded=0;fontStyle=1" vertex="1" parent="1">
          <mxGeometry x="75" y="240" width="60" height="20" as="geometry" />
        </mxCell>
        <mxCell id="CRXJROGHJ4yO3ktqUOCc-109" value="DQS_t" style="text;html=1;align=center;verticalAlign=middle;whiteSpace=wrap;rounded=0;fontStyle=1" vertex="1" parent="1">
          <mxGeometry x="75" y="280" width="60" height="20" as="geometry" />
        </mxCell>
        <mxCell id="CRXJROGHJ4yO3ktqUOCc-110" value="DQ" style="text;html=1;align=center;verticalAlign=middle;whiteSpace=wrap;rounded=0;fontColor=#160160;fontStyle=1" vertex="1" parent="1">
          <mxGeometry x="75" y="320" width="60" height="20" as="geometry" />
        </mxCell>
        <mxCell id="CRXJROGHJ4yO3ktqUOCc-111" value="" style="endArrow=none;dashed=1;html=1;rounded=0;" edge="1" parent="1" source="CRXJROGHJ4yO3ktqUOCc-262">
          <mxGeometry width="50" height="50" relative="1" as="geometry">
            <mxPoint x="185" y="850" as="sourcePoint" />
            <mxPoint x="185" y="200" as="targetPoint" />
          </mxGeometry>
        </mxCell>
        <mxCell id="CRXJROGHJ4yO3ktqUOCc-112" value="" style="endArrow=none;dashed=1;html=1;rounded=0;" edge="1" parent="1" source="CRXJROGHJ4yO3ktqUOCc-264">
          <mxGeometry width="50" height="50" relative="1" as="geometry">
            <mxPoint x="245" y="850" as="sourcePoint" />
            <mxPoint x="245" y="200" as="targetPoint" />
          </mxGeometry>
        </mxCell>
        <mxCell id="CRXJROGHJ4yO3ktqUOCc-123" value="" style="endArrow=none;html=1;rounded=0;strokeColor=#160160;strokeWidth=3;" edge="1" parent="1">
          <mxGeometry width="50" height="50" relative="1" as="geometry">
            <mxPoint x="862" y="349.71000000000004" as="sourcePoint" />
            <mxPoint x="882" y="309.71000000000004" as="targetPoint" />
          </mxGeometry>
        </mxCell>
        <mxCell id="CRXJROGHJ4yO3ktqUOCc-124" value="" style="endArrow=none;html=1;rounded=0;strokeColor=#160160;strokeWidth=3;" edge="1" parent="1">
          <mxGeometry width="50" height="50" relative="1" as="geometry">
            <mxPoint x="882" y="309.71000000000004" as="sourcePoint" />
            <mxPoint x="922" y="309.71000000000004" as="targetPoint" />
          </mxGeometry>
        </mxCell>
        <mxCell id="CRXJROGHJ4yO3ktqUOCc-125" value="" style="endArrow=none;html=1;rounded=0;strokeColor=#160160;strokeWidth=3;" edge="1" parent="1">
          <mxGeometry width="50" height="50" relative="1" as="geometry">
            <mxPoint x="942" y="349.71000000000004" as="sourcePoint" />
            <mxPoint x="922" y="309.71000000000004" as="targetPoint" />
          </mxGeometry>
        </mxCell>
        <mxCell id="CRXJROGHJ4yO3ktqUOCc-126" value="" style="endArrow=none;html=1;rounded=0;strokeColor=#160160;strokeWidth=3;" edge="1" parent="1">
          <mxGeometry width="50" height="50" relative="1" as="geometry">
            <mxPoint x="942" y="349.71000000000004" as="sourcePoint" />
            <mxPoint x="982" y="349.71000000000004" as="targetPoint" />
          </mxGeometry>
        </mxCell>
        <mxCell id="CRXJROGHJ4yO3ktqUOCc-127" value="" style="endArrow=none;html=1;rounded=0;strokeColor=#160160;strokeWidth=3;" edge="1" parent="1">
          <mxGeometry width="50" height="50" relative="1" as="geometry">
            <mxPoint x="982" y="349.71000000000004" as="sourcePoint" />
            <mxPoint x="1002" y="309.71000000000004" as="targetPoint" />
          </mxGeometry>
        </mxCell>
        <mxCell id="CRXJROGHJ4yO3ktqUOCc-128" value="" style="endArrow=none;html=1;rounded=0;strokeColor=#160160;strokeWidth=3;" edge="1" parent="1">
          <mxGeometry width="50" height="50" relative="1" as="geometry">
            <mxPoint x="883" y="349.71000000000004" as="sourcePoint" />
            <mxPoint x="863" y="309.71000000000004" as="targetPoint" />
          </mxGeometry>
        </mxCell>
        <mxCell id="CRXJROGHJ4yO3ktqUOCc-129" value="" style="endArrow=none;html=1;rounded=0;strokeColor=#160160;strokeWidth=3;" edge="1" parent="1">
          <mxGeometry width="50" height="50" relative="1" as="geometry">
            <mxPoint x="883" y="349.71000000000004" as="sourcePoint" />
            <mxPoint x="923" y="349.71000000000004" as="targetPoint" />
          </mxGeometry>
        </mxCell>
        <mxCell id="CRXJROGHJ4yO3ktqUOCc-130" value="" style="endArrow=none;html=1;rounded=0;strokeColor=#160160;strokeWidth=3;" edge="1" parent="1">
          <mxGeometry width="50" height="50" relative="1" as="geometry">
            <mxPoint x="923" y="349.71000000000004" as="sourcePoint" />
            <mxPoint x="943" y="309.71000000000004" as="targetPoint" />
          </mxGeometry>
        </mxCell>
        <mxCell id="CRXJROGHJ4yO3ktqUOCc-131" value="" style="endArrow=none;html=1;rounded=0;strokeColor=#160160;strokeWidth=3;" edge="1" parent="1">
          <mxGeometry width="50" height="50" relative="1" as="geometry">
            <mxPoint x="943" y="309.71000000000004" as="sourcePoint" />
            <mxPoint x="983" y="309.71000000000004" as="targetPoint" />
          </mxGeometry>
        </mxCell>
        <mxCell id="CRXJROGHJ4yO3ktqUOCc-132" value="" style="endArrow=none;html=1;rounded=0;strokeColor=#160160;strokeWidth=3;" edge="1" parent="1">
          <mxGeometry width="50" height="50" relative="1" as="geometry">
            <mxPoint x="1003" y="349.71000000000004" as="sourcePoint" />
            <mxPoint x="983" y="309.71000000000004" as="targetPoint" />
          </mxGeometry>
        </mxCell>
        <mxCell id="CRXJROGHJ4yO3ktqUOCc-133" value="" style="endArrow=none;html=1;rounded=0;strokeColor=#f5a905;strokeWidth=3;" edge="1" parent="1">
          <mxGeometry width="50" height="50" relative="1" as="geometry">
            <mxPoint x="317" y="410" as="sourcePoint" />
            <mxPoint x="337" y="370" as="targetPoint" />
          </mxGeometry>
        </mxCell>
        <mxCell id="CRXJROGHJ4yO3ktqUOCc-134" value="" style="endArrow=none;html=1;rounded=0;strokeColor=#f5a905;strokeWidth=3;" edge="1" parent="1">
          <mxGeometry width="50" height="50" relative="1" as="geometry">
            <mxPoint x="337" y="370" as="sourcePoint" />
            <mxPoint x="437" y="370" as="targetPoint" />
          </mxGeometry>
        </mxCell>
        <mxCell id="CRXJROGHJ4yO3ktqUOCc-135" value="" style="endArrow=none;html=1;rounded=0;strokeColor=#f5a905;strokeWidth=3;" edge="1" parent="1">
          <mxGeometry width="50" height="50" relative="1" as="geometry">
            <mxPoint x="457" y="410" as="sourcePoint" />
            <mxPoint x="437" y="370" as="targetPoint" />
          </mxGeometry>
        </mxCell>
        <mxCell id="CRXJROGHJ4yO3ktqUOCc-136" value="" style="endArrow=none;html=1;rounded=0;strokeColor=#f5a905;strokeWidth=3;" edge="1" parent="1">
          <mxGeometry width="50" height="50" relative="1" as="geometry">
            <mxPoint x="457" y="410" as="sourcePoint" />
            <mxPoint x="557" y="410" as="targetPoint" />
          </mxGeometry>
        </mxCell>
        <mxCell id="CRXJROGHJ4yO3ktqUOCc-137" value="" style="endArrow=none;html=1;rounded=0;strokeColor=#f5a905;strokeWidth=3;" edge="1" parent="1">
          <mxGeometry width="50" height="50" relative="1" as="geometry">
            <mxPoint x="557" y="410" as="sourcePoint" />
            <mxPoint x="577" y="370" as="targetPoint" />
          </mxGeometry>
        </mxCell>
        <mxCell id="CRXJROGHJ4yO3ktqUOCc-138" value="" style="endArrow=none;html=1;rounded=0;strokeColor=#f5a905;strokeWidth=3;" edge="1" parent="1">
          <mxGeometry width="50" height="50" relative="1" as="geometry">
            <mxPoint x="577" y="370" as="sourcePoint" />
            <mxPoint x="677" y="370" as="targetPoint" />
          </mxGeometry>
        </mxCell>
        <mxCell id="CRXJROGHJ4yO3ktqUOCc-139" value="" style="endArrow=none;html=1;rounded=0;strokeColor=#f5a905;strokeWidth=3;" edge="1" parent="1">
          <mxGeometry width="50" height="50" relative="1" as="geometry">
            <mxPoint x="697" y="410" as="sourcePoint" />
            <mxPoint x="677" y="370" as="targetPoint" />
          </mxGeometry>
        </mxCell>
        <mxCell id="CRXJROGHJ4yO3ktqUOCc-140" value="" style="endArrow=none;html=1;rounded=0;strokeColor=#f5a905;strokeWidth=3;" edge="1" parent="1">
          <mxGeometry width="50" height="50" relative="1" as="geometry">
            <mxPoint x="697" y="410" as="sourcePoint" />
            <mxPoint x="797" y="410" as="targetPoint" />
          </mxGeometry>
        </mxCell>
        <mxCell id="CRXJROGHJ4yO3ktqUOCc-141" value="" style="endArrow=none;html=1;rounded=0;strokeColor=#f5a905;strokeWidth=3;" edge="1" parent="1">
          <mxGeometry width="50" height="50" relative="1" as="geometry">
            <mxPoint x="797" y="410" as="sourcePoint" />
            <mxPoint x="817" y="370" as="targetPoint" />
          </mxGeometry>
        </mxCell>
        <mxCell id="CRXJROGHJ4yO3ktqUOCc-142" value="" style="endArrow=none;html=1;rounded=0;strokeColor=#f5a905;strokeWidth=3;" edge="1" parent="1">
          <mxGeometry width="50" height="50" relative="1" as="geometry">
            <mxPoint x="817" y="370" as="sourcePoint" />
            <mxPoint x="917" y="370" as="targetPoint" />
          </mxGeometry>
        </mxCell>
        <mxCell id="CRXJROGHJ4yO3ktqUOCc-143" value="" style="endArrow=none;html=1;rounded=0;strokeColor=#f5a905;strokeWidth=3;" edge="1" parent="1">
          <mxGeometry width="50" height="50" relative="1" as="geometry">
            <mxPoint x="937" y="410" as="sourcePoint" />
            <mxPoint x="917" y="370" as="targetPoint" />
          </mxGeometry>
        </mxCell>
        <mxCell id="CRXJROGHJ4yO3ktqUOCc-144" value="" style="endArrow=none;html=1;rounded=0;strokeColor=#f5a905;strokeWidth=3;" edge="1" parent="1">
          <mxGeometry width="50" height="50" relative="1" as="geometry">
            <mxPoint x="937" y="410" as="sourcePoint" />
            <mxPoint x="1037" y="410" as="targetPoint" />
          </mxGeometry>
        </mxCell>
        <mxCell id="CRXJROGHJ4yO3ktqUOCc-145" value="" style="endArrow=none;html=1;rounded=0;strokeColor=#f5a905;strokeWidth=3;" edge="1" parent="1">
          <mxGeometry width="50" height="50" relative="1" as="geometry">
            <mxPoint x="287" y="410" as="sourcePoint" />
            <mxPoint x="317" y="410" as="targetPoint" />
          </mxGeometry>
        </mxCell>
        <mxCell id="CRXJROGHJ4yO3ktqUOCc-193" value="" style="endArrow=none;html=1;rounded=0;strokeColor=#f5a905;strokeWidth=3;" edge="1" parent="1">
          <mxGeometry width="50" height="50" relative="1" as="geometry">
            <mxPoint x="317" y="470" as="sourcePoint" />
            <mxPoint x="337" y="430" as="targetPoint" />
          </mxGeometry>
        </mxCell>
        <mxCell id="CRXJROGHJ4yO3ktqUOCc-194" value="" style="endArrow=none;html=1;rounded=0;strokeColor=#f5a905;strokeWidth=3;" edge="1" parent="1">
          <mxGeometry width="50" height="50" relative="1" as="geometry">
            <mxPoint x="337" y="430" as="sourcePoint" />
            <mxPoint x="557" y="430" as="targetPoint" />
          </mxGeometry>
        </mxCell>
        <mxCell id="CRXJROGHJ4yO3ktqUOCc-195" value="" style="endArrow=none;html=1;rounded=0;strokeColor=#f5a905;strokeWidth=3;" edge="1" parent="1">
          <mxGeometry width="50" height="50" relative="1" as="geometry">
            <mxPoint x="577" y="470" as="sourcePoint" />
            <mxPoint x="557" y="430" as="targetPoint" />
          </mxGeometry>
        </mxCell>
        <mxCell id="CRXJROGHJ4yO3ktqUOCc-196" value="" style="endArrow=none;html=1;rounded=0;strokeColor=#f5a905;strokeWidth=3;" edge="1" parent="1">
          <mxGeometry width="50" height="50" relative="1" as="geometry">
            <mxPoint x="337" y="470" as="sourcePoint" />
            <mxPoint x="557" y="470" as="targetPoint" />
          </mxGeometry>
        </mxCell>
        <mxCell id="CRXJROGHJ4yO3ktqUOCc-197" value="" style="endArrow=none;html=1;rounded=0;strokeColor=#f5a905;strokeWidth=3;" edge="1" parent="1">
          <mxGeometry width="50" height="50" relative="1" as="geometry">
            <mxPoint x="557" y="470" as="sourcePoint" />
            <mxPoint x="577" y="430" as="targetPoint" />
          </mxGeometry>
        </mxCell>
        <mxCell id="CRXJROGHJ4yO3ktqUOCc-198" value="" style="endArrow=none;html=1;rounded=0;strokeColor=#f5a905;strokeWidth=3;" edge="1" parent="1">
          <mxGeometry width="50" height="50" relative="1" as="geometry">
            <mxPoint x="287" y="470" as="sourcePoint" />
            <mxPoint x="317" y="470" as="targetPoint" />
          </mxGeometry>
        </mxCell>
        <mxCell id="CRXJROGHJ4yO3ktqUOCc-199" value="" style="endArrow=none;html=1;rounded=0;strokeColor=#f5a905;strokeWidth=3;" edge="1" parent="1">
          <mxGeometry width="50" height="50" relative="1" as="geometry">
            <mxPoint x="337" y="470" as="sourcePoint" />
            <mxPoint x="317" y="430" as="targetPoint" />
          </mxGeometry>
        </mxCell>
        <mxCell id="CRXJROGHJ4yO3ktqUOCc-200" value="" style="endArrow=none;html=1;rounded=0;strokeColor=#f5a905;strokeWidth=3;" edge="1" parent="1">
          <mxGeometry width="50" height="50" relative="1" as="geometry">
            <mxPoint x="287" y="430" as="sourcePoint" />
            <mxPoint x="317" y="430" as="targetPoint" />
          </mxGeometry>
        </mxCell>
        <mxCell id="CRXJROGHJ4yO3ktqUOCc-201" value="" style="endArrow=none;html=1;rounded=0;strokeColor=#f5a905;strokeWidth=3;" edge="1" parent="1">
          <mxGeometry width="50" height="50" relative="1" as="geometry">
            <mxPoint x="577" y="430" as="sourcePoint" />
            <mxPoint x="797" y="430" as="targetPoint" />
          </mxGeometry>
        </mxCell>
        <mxCell id="CRXJROGHJ4yO3ktqUOCc-202" value="" style="endArrow=none;html=1;rounded=0;strokeColor=#f5a905;strokeWidth=3;" edge="1" parent="1">
          <mxGeometry width="50" height="50" relative="1" as="geometry">
            <mxPoint x="817" y="470" as="sourcePoint" />
            <mxPoint x="797" y="430" as="targetPoint" />
          </mxGeometry>
        </mxCell>
        <mxCell id="CRXJROGHJ4yO3ktqUOCc-203" value="" style="endArrow=none;html=1;rounded=0;strokeColor=#f5a905;strokeWidth=3;" edge="1" parent="1">
          <mxGeometry width="50" height="50" relative="1" as="geometry">
            <mxPoint x="577" y="470" as="sourcePoint" />
            <mxPoint x="797" y="470" as="targetPoint" />
          </mxGeometry>
        </mxCell>
        <mxCell id="CRXJROGHJ4yO3ktqUOCc-204" value="" style="endArrow=none;html=1;rounded=0;strokeColor=#f5a905;strokeWidth=3;" edge="1" parent="1">
          <mxGeometry width="50" height="50" relative="1" as="geometry">
            <mxPoint x="797" y="470" as="sourcePoint" />
            <mxPoint x="817" y="430" as="targetPoint" />
          </mxGeometry>
        </mxCell>
        <mxCell id="CRXJROGHJ4yO3ktqUOCc-205" value="" style="endArrow=none;html=1;rounded=0;strokeColor=#f5a905;strokeWidth=3;" edge="1" parent="1">
          <mxGeometry width="50" height="50" relative="1" as="geometry">
            <mxPoint x="817" y="470" as="sourcePoint" />
            <mxPoint x="847" y="470" as="targetPoint" />
          </mxGeometry>
        </mxCell>
        <mxCell id="CRXJROGHJ4yO3ktqUOCc-206" value="" style="endArrow=none;html=1;rounded=0;strokeColor=#f5a905;strokeWidth=3;" edge="1" parent="1">
          <mxGeometry width="50" height="50" relative="1" as="geometry">
            <mxPoint x="817" y="430" as="sourcePoint" />
            <mxPoint x="847" y="430" as="targetPoint" />
          </mxGeometry>
        </mxCell>
        <mxCell id="CRXJROGHJ4yO3ktqUOCc-249" value="" style="endArrow=none;html=1;rounded=0;strokeColor=#160160;strokeWidth=3;" edge="1" parent="1">
          <mxGeometry width="50" height="50" relative="1" as="geometry">
            <mxPoint x="1000" y="349.58000000000004" as="sourcePoint" />
            <mxPoint x="1025" y="350" as="targetPoint" />
          </mxGeometry>
        </mxCell>
        <mxCell id="CRXJROGHJ4yO3ktqUOCc-250" value="" style="endArrow=none;html=1;rounded=0;strokeColor=#160160;strokeWidth=3;" edge="1" parent="1">
          <mxGeometry width="50" height="50" relative="1" as="geometry">
            <mxPoint x="1001" y="309.58000000000004" as="sourcePoint" />
            <mxPoint x="1025" y="310" as="targetPoint" />
          </mxGeometry>
        </mxCell>
        <mxCell id="CRXJROGHJ4yO3ktqUOCc-251" value="" style="endArrow=classic;html=1;rounded=0;strokeColor=#0a0a0a;strokeWidth=3;endFill=1;" edge="1" parent="1">
          <mxGeometry width="50" height="50" relative="1" as="geometry">
            <mxPoint x="1015" y="290" as="sourcePoint" />
            <mxPoint x="1035" y="250" as="targetPoint" />
          </mxGeometry>
        </mxCell>
        <mxCell id="CRXJROGHJ4yO3ktqUOCc-252" value="" style="endArrow=none;html=1;rounded=0;strokeColor=#0a0a0a;strokeWidth=3;dashed=1;" edge="1" parent="1">
          <mxGeometry width="50" height="50" relative="1" as="geometry">
            <mxPoint x="1036" y="290" as="sourcePoint" />
            <mxPoint x="1016" y="250" as="targetPoint" />
          </mxGeometry>
        </mxCell>
        <mxCell id="CRXJROGHJ4yO3ktqUOCc-253" value="LBDQS" style="text;html=1;align=center;verticalAlign=middle;whiteSpace=wrap;rounded=0;fontColor=#f5a904;fontStyle=1" vertex="1" parent="1">
          <mxGeometry x="77" y="380" width="60" height="20" as="geometry" />
        </mxCell>
        <mxCell id="CRXJROGHJ4yO3ktqUOCc-257" value="LBDQ" style="text;html=1;align=center;verticalAlign=middle;whiteSpace=wrap;rounded=0;fontColor=#f5a904;fontStyle=1" vertex="1" parent="1">
          <mxGeometry x="77" y="440" width="60" height="20" as="geometry" />
        </mxCell>
        <mxCell id="CRXJROGHJ4yO3ktqUOCc-262" value="UI0" style="text;html=1;align=center;verticalAlign=middle;whiteSpace=wrap;rounded=0;fontColor=#0a0a0a;fontStyle=1;strokeColor=none;" vertex="1" parent="1">
          <mxGeometry x="165" y="320" width="40" height="20" as="geometry" />
        </mxCell>
        <mxCell id="CRXJROGHJ4yO3ktqUOCc-264" value="UI1" style="text;html=1;align=center;verticalAlign=middle;whiteSpace=wrap;rounded=0;fontColor=#0a0a0a;fontStyle=1;strokeColor=none;" vertex="1" parent="1">
          <mxGeometry x="225" y="320" width="40" height="20" as="geometry" />
        </mxCell>
        <mxCell id="CRXJROGHJ4yO3ktqUOCc-265" value="UI2" style="text;html=1;align=center;verticalAlign=middle;whiteSpace=wrap;rounded=0;fontColor=#0a0a0a;fontStyle=1;strokeColor=none;fillColor=default;" vertex="1" parent="1">
          <mxGeometry x="285" y="320" width="40" height="20" as="geometry" />
        </mxCell>
        <mxCell id="CRXJROGHJ4yO3ktqUOCc-266" value="UI3" style="text;html=1;align=center;verticalAlign=middle;whiteSpace=wrap;rounded=0;fontColor=#0a0a0a;fontStyle=1;strokeColor=none;" vertex="1" parent="1">
          <mxGeometry x="345" y="320" width="40" height="20" as="geometry" />
        </mxCell>
        <mxCell id="CRXJROGHJ4yO3ktqUOCc-267" value="UI4" style="text;html=1;align=center;verticalAlign=middle;whiteSpace=wrap;rounded=0;fontColor=#0a0a0a;fontStyle=1;strokeColor=none;" vertex="1" parent="1">
          <mxGeometry x="405" y="320" width="40" height="20" as="geometry" />
        </mxCell>
        <mxCell id="CRXJROGHJ4yO3ktqUOCc-268" value="UI5" style="text;html=1;align=center;verticalAlign=middle;whiteSpace=wrap;rounded=0;fontColor=#0a0a0a;fontStyle=1;strokeColor=none;" vertex="1" parent="1">
          <mxGeometry x="465" y="320" width="40" height="20" as="geometry" />
        </mxCell>
        <mxCell id="CRXJROGHJ4yO3ktqUOCc-269" value="UI6" style="text;html=1;align=center;verticalAlign=middle;whiteSpace=wrap;rounded=0;fontColor=#0a0a0a;fontStyle=1;strokeColor=none;" vertex="1" parent="1">
          <mxGeometry x="525" y="320" width="40" height="20" as="geometry" />
        </mxCell>
        <mxCell id="CRXJROGHJ4yO3ktqUOCc-270" value="UI7" style="text;html=1;align=center;verticalAlign=middle;whiteSpace=wrap;rounded=0;fontColor=#0a0a0a;fontStyle=1;strokeColor=none;" vertex="1" parent="1">
          <mxGeometry x="585" y="320" width="40" height="20" as="geometry" />
        </mxCell>
        <mxCell id="CRXJROGHJ4yO3ktqUOCc-271" value="UI0" style="text;html=1;align=center;verticalAlign=middle;whiteSpace=wrap;rounded=0;fontColor=#0a0a0a;fontStyle=1;strokeColor=none;" vertex="1" parent="1">
          <mxGeometry x="645" y="320" width="40" height="20" as="geometry" />
        </mxCell>
        <mxCell id="CRXJROGHJ4yO3ktqUOCc-272" value="UI1" style="text;html=1;align=center;verticalAlign=middle;whiteSpace=wrap;rounded=0;fontColor=#0a0a0a;fontStyle=1;strokeColor=none;" vertex="1" parent="1">
          <mxGeometry x="705" y="320" width="40" height="20" as="geometry" />
        </mxCell>
        <mxCell id="CRXJROGHJ4yO3ktqUOCc-273" value="UI2" style="text;html=1;align=center;verticalAlign=middle;whiteSpace=wrap;rounded=0;fontColor=#0a0a0a;fontStyle=1;strokeColor=none;fillColor=default;" vertex="1" parent="1">
          <mxGeometry x="765" y="320" width="40" height="20" as="geometry" />
        </mxCell>
        <mxCell id="CRXJROGHJ4yO3ktqUOCc-274" value="UI3" style="text;html=1;align=center;verticalAlign=middle;whiteSpace=wrap;rounded=0;fontColor=#0a0a0a;fontStyle=1;strokeColor=none;fillColor=default;" vertex="1" parent="1">
          <mxGeometry x="825" y="320" width="40" height="20" as="geometry" />
        </mxCell>
        <mxCell id="CRXJROGHJ4yO3ktqUOCc-275" value="UI4" style="text;html=1;align=center;verticalAlign=middle;whiteSpace=wrap;rounded=0;fontColor=#0a0a0a;fontStyle=1;strokeColor=none;fillColor=default;" vertex="1" parent="1">
          <mxGeometry x="885" y="320" width="40" height="20" as="geometry" />
        </mxCell>
        <mxCell id="CRXJROGHJ4yO3ktqUOCc-276" value="UI5" style="text;html=1;align=center;verticalAlign=middle;whiteSpace=wrap;rounded=0;fontColor=#0a0a0a;fontStyle=1;strokeColor=none;fillColor=default;" vertex="1" parent="1">
          <mxGeometry x="945" y="320" width="40" height="20" as="geometry" />
        </mxCell>
        <mxCell id="CRXJROGHJ4yO3ktqUOCc-278" value="UI0" style="text;html=1;align=center;verticalAlign=middle;whiteSpace=wrap;rounded=0;fontColor=#0a0a0a;fontStyle=1;strokeColor=none;" vertex="1" parent="1">
          <mxGeometry x="427" y="440" width="40" height="20" as="geometry" />
        </mxCell>
        <mxCell id="CRXJROGHJ4yO3ktqUOCc-283" value="UI4" style="text;html=1;align=center;verticalAlign=middle;whiteSpace=wrap;rounded=0;fontColor=#0a0a0a;fontStyle=1;strokeColor=none;" vertex="1" parent="1">
          <mxGeometry x="667" y="440" width="40" height="20" as="geometry" />
        </mxCell>
        <mxCell id="CRXJROGHJ4yO3ktqUOCc-586" value="" style="endArrow=none;html=1;rounded=0;strokeWidth=3;" edge="1" parent="1">
          <mxGeometry width="50" height="50" relative="1" as="geometry">
            <mxPoint x="185" y="420" as="sourcePoint" />
            <mxPoint x="184.5" y="360" as="targetPoint" />
          </mxGeometry>
        </mxCell>
        <mxCell id="CRXJROGHJ4yO3ktqUOCc-587" value="" style="endArrow=none;html=1;rounded=0;strokeWidth=3;" edge="1" parent="1">
          <mxGeometry width="50" height="50" relative="1" as="geometry">
            <mxPoint x="325" y="420" as="sourcePoint" />
            <mxPoint x="325" y="360" as="targetPoint" />
          </mxGeometry>
        </mxCell>
        <mxCell id="CRXJROGHJ4yO3ktqUOCc-588" value="" style="endArrow=classic;startArrow=classic;html=1;rounded=0;" edge="1" parent="1">
          <mxGeometry width="50" height="50" relative="1" as="geometry">
            <mxPoint x="185" y="389.66" as="sourcePoint" />
            <mxPoint x="325" y="389.66" as="targetPoint" />
          </mxGeometry>
        </mxCell>
        <mxCell id="CRXJROGHJ4yO3ktqUOCc-590" value="" style="endArrow=none;dashed=1;html=1;rounded=0;" edge="1" parent="1" target="CRXJROGHJ4yO3ktqUOCc-589">
          <mxGeometry width="50" height="50" relative="1" as="geometry">
            <mxPoint x="245" y="520" as="sourcePoint" />
            <mxPoint x="244.5" y="350" as="targetPoint" />
          </mxGeometry>
        </mxCell>
        <mxCell id="CRXJROGHJ4yO3ktqUOCc-589" value="tLBDLY" style="text;html=1;align=center;verticalAlign=middle;whiteSpace=wrap;rounded=0;fontColor=#0a0a0a;fontStyle=1;strokeColor=none;" vertex="1" parent="1">
          <mxGeometry x="225" y="370" width="40" height="20" as="geometry" />
        </mxCell>
        <mxCell id="CRXJROGHJ4yO3ktqUOCc-591" value="" style="endArrow=none;dashed=1;html=1;rounded=0;" edge="1" parent="1">
          <mxGeometry width="50" height="50" relative="1" as="geometry">
            <mxPoint x="305" y="858" as="sourcePoint" />
            <mxPoint x="305" y="538" as="targetPoint" />
          </mxGeometry>
        </mxCell>
        <mxCell id="CRXJROGHJ4yO3ktqUOCc-592" value="" style="endArrow=none;dashed=1;html=1;rounded=0;" edge="1" parent="1">
          <mxGeometry width="50" height="50" relative="1" as="geometry">
            <mxPoint x="365" y="858" as="sourcePoint" />
            <mxPoint x="365" y="538" as="targetPoint" />
          </mxGeometry>
        </mxCell>
        <mxCell id="CRXJROGHJ4yO3ktqUOCc-593" value="" style="endArrow=none;dashed=1;html=1;rounded=0;" edge="1" parent="1">
          <mxGeometry width="50" height="50" relative="1" as="geometry">
            <mxPoint x="425" y="858" as="sourcePoint" />
            <mxPoint x="425" y="538" as="targetPoint" />
          </mxGeometry>
        </mxCell>
        <mxCell id="CRXJROGHJ4yO3ktqUOCc-594" value="" style="endArrow=none;dashed=1;html=1;rounded=0;" edge="1" parent="1">
          <mxGeometry width="50" height="50" relative="1" as="geometry">
            <mxPoint x="485" y="858" as="sourcePoint" />
            <mxPoint x="485" y="538" as="targetPoint" />
          </mxGeometry>
        </mxCell>
        <mxCell id="CRXJROGHJ4yO3ktqUOCc-595" value="" style="endArrow=none;dashed=1;html=1;rounded=0;" edge="1" parent="1">
          <mxGeometry width="50" height="50" relative="1" as="geometry">
            <mxPoint x="545" y="858" as="sourcePoint" />
            <mxPoint x="545" y="538" as="targetPoint" />
          </mxGeometry>
        </mxCell>
        <mxCell id="CRXJROGHJ4yO3ktqUOCc-596" value="" style="endArrow=none;dashed=1;html=1;rounded=0;" edge="1" parent="1">
          <mxGeometry width="50" height="50" relative="1" as="geometry">
            <mxPoint x="605" y="858" as="sourcePoint" />
            <mxPoint x="605" y="538" as="targetPoint" />
          </mxGeometry>
        </mxCell>
        <mxCell id="CRXJROGHJ4yO3ktqUOCc-597" value="" style="endArrow=none;dashed=1;html=1;rounded=0;" edge="1" parent="1">
          <mxGeometry width="50" height="50" relative="1" as="geometry">
            <mxPoint x="665" y="858" as="sourcePoint" />
            <mxPoint x="665" y="538" as="targetPoint" />
          </mxGeometry>
        </mxCell>
        <mxCell id="CRXJROGHJ4yO3ktqUOCc-598" value="" style="endArrow=none;dashed=1;html=1;rounded=0;" edge="1" parent="1" target="CRXJROGHJ4yO3ktqUOCc-759">
          <mxGeometry width="50" height="50" relative="1" as="geometry">
            <mxPoint x="185" y="858" as="sourcePoint" />
            <mxPoint x="185" y="548" as="targetPoint" />
          </mxGeometry>
        </mxCell>
        <mxCell id="CRXJROGHJ4yO3ktqUOCc-600" value="" style="endArrow=none;dashed=1;html=1;rounded=0;" edge="1" parent="1">
          <mxGeometry width="50" height="50" relative="1" as="geometry">
            <mxPoint x="725" y="858" as="sourcePoint" />
            <mxPoint x="725" y="538" as="targetPoint" />
          </mxGeometry>
        </mxCell>
        <mxCell id="CRXJROGHJ4yO3ktqUOCc-601" value="" style="endArrow=none;dashed=1;html=1;rounded=0;" edge="1" parent="1">
          <mxGeometry width="50" height="50" relative="1" as="geometry">
            <mxPoint x="785" y="858" as="sourcePoint" />
            <mxPoint x="785" y="538" as="targetPoint" />
          </mxGeometry>
        </mxCell>
        <mxCell id="CRXJROGHJ4yO3ktqUOCc-602" value="" style="endArrow=none;dashed=1;html=1;rounded=0;" edge="1" parent="1">
          <mxGeometry width="50" height="50" relative="1" as="geometry">
            <mxPoint x="845" y="858" as="sourcePoint" />
            <mxPoint x="845" y="538" as="targetPoint" />
          </mxGeometry>
        </mxCell>
        <mxCell id="CRXJROGHJ4yO3ktqUOCc-603" value="" style="endArrow=none;dashed=1;html=1;rounded=0;" edge="1" parent="1">
          <mxGeometry width="50" height="50" relative="1" as="geometry">
            <mxPoint x="905" y="858" as="sourcePoint" />
            <mxPoint x="904.5" y="538" as="targetPoint" />
          </mxGeometry>
        </mxCell>
        <mxCell id="CRXJROGHJ4yO3ktqUOCc-604" value="" style="endArrow=none;dashed=1;html=1;rounded=0;" edge="1" parent="1">
          <mxGeometry width="50" height="50" relative="1" as="geometry">
            <mxPoint x="965" y="868" as="sourcePoint" />
            <mxPoint x="964.5" y="538" as="targetPoint" />
          </mxGeometry>
        </mxCell>
        <mxCell id="CRXJROGHJ4yO3ktqUOCc-605" value="" style="endArrow=classic;html=1;rounded=0;strokeColor=#0a0a0a;strokeWidth=3;endFill=1;" edge="1" parent="1">
          <mxGeometry width="50" height="50" relative="1" as="geometry">
            <mxPoint x="175" y="628" as="sourcePoint" />
            <mxPoint x="195" y="588" as="targetPoint" />
          </mxGeometry>
        </mxCell>
        <mxCell id="CRXJROGHJ4yO3ktqUOCc-606" value="" style="endArrow=none;html=1;rounded=0;strokeColor=#0a0a0a;strokeWidth=3;" edge="1" parent="1">
          <mxGeometry width="50" height="50" relative="1" as="geometry">
            <mxPoint x="195" y="588" as="sourcePoint" />
            <mxPoint x="235" y="588" as="targetPoint" />
          </mxGeometry>
        </mxCell>
        <mxCell id="CRXJROGHJ4yO3ktqUOCc-607" value="" style="endArrow=none;html=1;rounded=0;strokeColor=#0a0a0a;strokeWidth=3;" edge="1" parent="1">
          <mxGeometry width="50" height="50" relative="1" as="geometry">
            <mxPoint x="255" y="628" as="sourcePoint" />
            <mxPoint x="235" y="588" as="targetPoint" />
          </mxGeometry>
        </mxCell>
        <mxCell id="CRXJROGHJ4yO3ktqUOCc-608" value="" style="endArrow=none;html=1;rounded=0;strokeColor=#0a0a0a;strokeWidth=3;" edge="1" parent="1">
          <mxGeometry width="50" height="50" relative="1" as="geometry">
            <mxPoint x="255" y="628" as="sourcePoint" />
            <mxPoint x="295" y="628" as="targetPoint" />
          </mxGeometry>
        </mxCell>
        <mxCell id="CRXJROGHJ4yO3ktqUOCc-609" value="" style="endArrow=classic;html=1;rounded=0;strokeColor=#0a0a0a;strokeWidth=3;endFill=1;" edge="1" parent="1">
          <mxGeometry width="50" height="50" relative="1" as="geometry">
            <mxPoint x="295" y="628" as="sourcePoint" />
            <mxPoint x="315" y="588" as="targetPoint" />
          </mxGeometry>
        </mxCell>
        <mxCell id="CRXJROGHJ4yO3ktqUOCc-610" value="" style="endArrow=none;html=1;rounded=0;strokeColor=#0a0a0a;strokeWidth=3;" edge="1" parent="1">
          <mxGeometry width="50" height="50" relative="1" as="geometry">
            <mxPoint x="315" y="588" as="sourcePoint" />
            <mxPoint x="355" y="588" as="targetPoint" />
          </mxGeometry>
        </mxCell>
        <mxCell id="CRXJROGHJ4yO3ktqUOCc-611" value="" style="endArrow=none;html=1;rounded=0;strokeColor=#0a0a0a;strokeWidth=3;" edge="1" parent="1">
          <mxGeometry width="50" height="50" relative="1" as="geometry">
            <mxPoint x="375" y="628" as="sourcePoint" />
            <mxPoint x="355" y="588" as="targetPoint" />
          </mxGeometry>
        </mxCell>
        <mxCell id="CRXJROGHJ4yO3ktqUOCc-612" value="" style="endArrow=none;html=1;rounded=0;strokeColor=#0a0a0a;strokeWidth=3;" edge="1" parent="1">
          <mxGeometry width="50" height="50" relative="1" as="geometry">
            <mxPoint x="375" y="628" as="sourcePoint" />
            <mxPoint x="415" y="628" as="targetPoint" />
          </mxGeometry>
        </mxCell>
        <mxCell id="CRXJROGHJ4yO3ktqUOCc-613" value="" style="endArrow=classic;html=1;rounded=0;strokeColor=#0a0a0a;strokeWidth=3;endFill=1;" edge="1" parent="1">
          <mxGeometry width="50" height="50" relative="1" as="geometry">
            <mxPoint x="415" y="628" as="sourcePoint" />
            <mxPoint x="435" y="588" as="targetPoint" />
          </mxGeometry>
        </mxCell>
        <mxCell id="CRXJROGHJ4yO3ktqUOCc-614" value="" style="endArrow=none;html=1;rounded=0;strokeColor=#0a0a0a;strokeWidth=3;" edge="1" parent="1">
          <mxGeometry width="50" height="50" relative="1" as="geometry">
            <mxPoint x="435" y="588" as="sourcePoint" />
            <mxPoint x="475" y="588" as="targetPoint" />
          </mxGeometry>
        </mxCell>
        <mxCell id="CRXJROGHJ4yO3ktqUOCc-615" value="" style="endArrow=none;html=1;rounded=0;strokeColor=#0a0a0a;strokeWidth=3;" edge="1" parent="1">
          <mxGeometry width="50" height="50" relative="1" as="geometry">
            <mxPoint x="495" y="628" as="sourcePoint" />
            <mxPoint x="475" y="588" as="targetPoint" />
          </mxGeometry>
        </mxCell>
        <mxCell id="CRXJROGHJ4yO3ktqUOCc-616" value="" style="endArrow=none;html=1;rounded=0;strokeColor=#0a0a0a;strokeWidth=3;" edge="1" parent="1">
          <mxGeometry width="50" height="50" relative="1" as="geometry">
            <mxPoint x="495" y="628" as="sourcePoint" />
            <mxPoint x="535" y="628" as="targetPoint" />
          </mxGeometry>
        </mxCell>
        <mxCell id="CRXJROGHJ4yO3ktqUOCc-617" value="" style="endArrow=classic;html=1;rounded=0;strokeColor=#0a0a0a;strokeWidth=3;endFill=1;" edge="1" parent="1">
          <mxGeometry width="50" height="50" relative="1" as="geometry">
            <mxPoint x="535" y="628" as="sourcePoint" />
            <mxPoint x="555" y="588" as="targetPoint" />
          </mxGeometry>
        </mxCell>
        <mxCell id="CRXJROGHJ4yO3ktqUOCc-618" value="" style="endArrow=none;html=1;rounded=0;strokeColor=#0a0a0a;strokeWidth=3;" edge="1" parent="1">
          <mxGeometry width="50" height="50" relative="1" as="geometry">
            <mxPoint x="555" y="588" as="sourcePoint" />
            <mxPoint x="595" y="588" as="targetPoint" />
          </mxGeometry>
        </mxCell>
        <mxCell id="CRXJROGHJ4yO3ktqUOCc-619" value="" style="endArrow=none;html=1;rounded=0;strokeColor=#0a0a0a;strokeWidth=3;" edge="1" parent="1">
          <mxGeometry width="50" height="50" relative="1" as="geometry">
            <mxPoint x="615" y="628" as="sourcePoint" />
            <mxPoint x="595" y="588" as="targetPoint" />
          </mxGeometry>
        </mxCell>
        <mxCell id="CRXJROGHJ4yO3ktqUOCc-620" value="" style="endArrow=none;html=1;rounded=0;strokeColor=#0a0a0a;strokeWidth=3;" edge="1" parent="1">
          <mxGeometry width="50" height="50" relative="1" as="geometry">
            <mxPoint x="615" y="628" as="sourcePoint" />
            <mxPoint x="655" y="628" as="targetPoint" />
          </mxGeometry>
        </mxCell>
        <mxCell id="CRXJROGHJ4yO3ktqUOCc-621" value="" style="endArrow=classic;html=1;rounded=0;strokeColor=#0a0a0a;strokeWidth=3;endFill=1;" edge="1" parent="1">
          <mxGeometry width="50" height="50" relative="1" as="geometry">
            <mxPoint x="655" y="628" as="sourcePoint" />
            <mxPoint x="675" y="588" as="targetPoint" />
          </mxGeometry>
        </mxCell>
        <mxCell id="CRXJROGHJ4yO3ktqUOCc-622" value="" style="endArrow=none;html=1;rounded=0;strokeColor=#0a0a0a;strokeWidth=3;" edge="1" parent="1">
          <mxGeometry width="50" height="50" relative="1" as="geometry">
            <mxPoint x="135" y="628" as="sourcePoint" />
            <mxPoint x="175" y="628" as="targetPoint" />
          </mxGeometry>
        </mxCell>
        <mxCell id="CRXJROGHJ4yO3ktqUOCc-623" value="" style="endArrow=none;html=1;rounded=0;strokeColor=#0a0a0a;strokeWidth=3;dashed=1;" edge="1" parent="1">
          <mxGeometry width="50" height="50" relative="1" as="geometry">
            <mxPoint x="136" y="588" as="sourcePoint" />
            <mxPoint x="176" y="588" as="targetPoint" />
          </mxGeometry>
        </mxCell>
        <mxCell id="CRXJROGHJ4yO3ktqUOCc-624" value="" style="endArrow=none;html=1;rounded=0;strokeColor=#0a0a0a;strokeWidth=3;dashed=1;" edge="1" parent="1">
          <mxGeometry width="50" height="50" relative="1" as="geometry">
            <mxPoint x="196" y="628" as="sourcePoint" />
            <mxPoint x="176" y="588" as="targetPoint" />
          </mxGeometry>
        </mxCell>
        <mxCell id="CRXJROGHJ4yO3ktqUOCc-625" value="" style="endArrow=none;html=1;rounded=0;strokeColor=#0a0a0a;strokeWidth=3;dashed=1;" edge="1" parent="1">
          <mxGeometry width="50" height="50" relative="1" as="geometry">
            <mxPoint x="196" y="628" as="sourcePoint" />
            <mxPoint x="236" y="628" as="targetPoint" />
          </mxGeometry>
        </mxCell>
        <mxCell id="CRXJROGHJ4yO3ktqUOCc-626" value="" style="endArrow=none;html=1;rounded=0;strokeColor=#0a0a0a;strokeWidth=3;dashed=1;" edge="1" parent="1">
          <mxGeometry width="50" height="50" relative="1" as="geometry">
            <mxPoint x="236" y="628" as="sourcePoint" />
            <mxPoint x="256" y="588" as="targetPoint" />
          </mxGeometry>
        </mxCell>
        <mxCell id="CRXJROGHJ4yO3ktqUOCc-627" value="" style="endArrow=none;html=1;rounded=0;strokeColor=#0a0a0a;strokeWidth=3;dashed=1;" edge="1" parent="1">
          <mxGeometry width="50" height="50" relative="1" as="geometry">
            <mxPoint x="256" y="588" as="sourcePoint" />
            <mxPoint x="296" y="588" as="targetPoint" />
          </mxGeometry>
        </mxCell>
        <mxCell id="CRXJROGHJ4yO3ktqUOCc-628" value="" style="endArrow=none;html=1;rounded=0;strokeColor=#0a0a0a;strokeWidth=3;dashed=1;" edge="1" parent="1">
          <mxGeometry width="50" height="50" relative="1" as="geometry">
            <mxPoint x="316" y="628" as="sourcePoint" />
            <mxPoint x="296" y="588" as="targetPoint" />
          </mxGeometry>
        </mxCell>
        <mxCell id="CRXJROGHJ4yO3ktqUOCc-629" value="" style="endArrow=none;html=1;rounded=0;strokeColor=#0a0a0a;strokeWidth=3;dashed=1;" edge="1" parent="1">
          <mxGeometry width="50" height="50" relative="1" as="geometry">
            <mxPoint x="316" y="628" as="sourcePoint" />
            <mxPoint x="356" y="628" as="targetPoint" />
          </mxGeometry>
        </mxCell>
        <mxCell id="CRXJROGHJ4yO3ktqUOCc-630" value="" style="endArrow=none;html=1;rounded=0;strokeColor=#0a0a0a;strokeWidth=3;dashed=1;" edge="1" parent="1">
          <mxGeometry width="50" height="50" relative="1" as="geometry">
            <mxPoint x="356" y="628" as="sourcePoint" />
            <mxPoint x="376" y="588" as="targetPoint" />
          </mxGeometry>
        </mxCell>
        <mxCell id="CRXJROGHJ4yO3ktqUOCc-631" value="" style="endArrow=none;html=1;rounded=0;strokeColor=#0a0a0a;strokeWidth=3;dashed=1;" edge="1" parent="1">
          <mxGeometry width="50" height="50" relative="1" as="geometry">
            <mxPoint x="376" y="588" as="sourcePoint" />
            <mxPoint x="416" y="588" as="targetPoint" />
          </mxGeometry>
        </mxCell>
        <mxCell id="CRXJROGHJ4yO3ktqUOCc-632" value="" style="endArrow=none;html=1;rounded=0;strokeColor=#0a0a0a;strokeWidth=3;dashed=1;" edge="1" parent="1">
          <mxGeometry width="50" height="50" relative="1" as="geometry">
            <mxPoint x="436" y="628" as="sourcePoint" />
            <mxPoint x="416" y="588" as="targetPoint" />
          </mxGeometry>
        </mxCell>
        <mxCell id="CRXJROGHJ4yO3ktqUOCc-633" value="" style="endArrow=none;html=1;rounded=0;strokeColor=#0a0a0a;strokeWidth=3;dashed=1;" edge="1" parent="1">
          <mxGeometry width="50" height="50" relative="1" as="geometry">
            <mxPoint x="436" y="628" as="sourcePoint" />
            <mxPoint x="476" y="628" as="targetPoint" />
          </mxGeometry>
        </mxCell>
        <mxCell id="CRXJROGHJ4yO3ktqUOCc-634" value="" style="endArrow=none;html=1;rounded=0;strokeColor=#0a0a0a;strokeWidth=3;dashed=1;" edge="1" parent="1">
          <mxGeometry width="50" height="50" relative="1" as="geometry">
            <mxPoint x="476" y="628" as="sourcePoint" />
            <mxPoint x="496" y="588" as="targetPoint" />
          </mxGeometry>
        </mxCell>
        <mxCell id="CRXJROGHJ4yO3ktqUOCc-635" value="" style="endArrow=none;html=1;rounded=0;strokeColor=#0a0a0a;strokeWidth=3;dashed=1;" edge="1" parent="1">
          <mxGeometry width="50" height="50" relative="1" as="geometry">
            <mxPoint x="496" y="588" as="sourcePoint" />
            <mxPoint x="536" y="588" as="targetPoint" />
          </mxGeometry>
        </mxCell>
        <mxCell id="CRXJROGHJ4yO3ktqUOCc-636" value="" style="endArrow=none;html=1;rounded=0;strokeColor=#0a0a0a;strokeWidth=3;dashed=1;" edge="1" parent="1">
          <mxGeometry width="50" height="50" relative="1" as="geometry">
            <mxPoint x="556" y="628" as="sourcePoint" />
            <mxPoint x="536" y="588" as="targetPoint" />
          </mxGeometry>
        </mxCell>
        <mxCell id="CRXJROGHJ4yO3ktqUOCc-637" value="" style="endArrow=none;html=1;rounded=0;strokeColor=#0a0a0a;strokeWidth=3;dashed=1;" edge="1" parent="1">
          <mxGeometry width="50" height="50" relative="1" as="geometry">
            <mxPoint x="556" y="628" as="sourcePoint" />
            <mxPoint x="596" y="628" as="targetPoint" />
          </mxGeometry>
        </mxCell>
        <mxCell id="CRXJROGHJ4yO3ktqUOCc-638" value="" style="endArrow=none;html=1;rounded=0;strokeColor=#0a0a0a;strokeWidth=3;dashed=1;" edge="1" parent="1">
          <mxGeometry width="50" height="50" relative="1" as="geometry">
            <mxPoint x="596" y="628" as="sourcePoint" />
            <mxPoint x="616" y="588" as="targetPoint" />
          </mxGeometry>
        </mxCell>
        <mxCell id="CRXJROGHJ4yO3ktqUOCc-639" value="" style="endArrow=none;html=1;rounded=0;strokeColor=#0a0a0a;strokeWidth=3;dashed=1;" edge="1" parent="1">
          <mxGeometry width="50" height="50" relative="1" as="geometry">
            <mxPoint x="615" y="588" as="sourcePoint" />
            <mxPoint x="655" y="588" as="targetPoint" />
          </mxGeometry>
        </mxCell>
        <mxCell id="CRXJROGHJ4yO3ktqUOCc-640" value="" style="endArrow=none;html=1;rounded=0;strokeColor=#0a0a0a;strokeWidth=3;dashed=1;" edge="1" parent="1">
          <mxGeometry width="50" height="50" relative="1" as="geometry">
            <mxPoint x="675" y="628" as="sourcePoint" />
            <mxPoint x="655" y="588" as="targetPoint" />
          </mxGeometry>
        </mxCell>
        <mxCell id="CRXJROGHJ4yO3ktqUOCc-641" value="" style="endArrow=none;html=1;rounded=0;strokeColor=#160160;strokeWidth=3;" edge="1" parent="1">
          <mxGeometry width="50" height="50" relative="1" as="geometry">
            <mxPoint x="164" y="688" as="sourcePoint" />
            <mxPoint x="144" y="648" as="targetPoint" />
          </mxGeometry>
        </mxCell>
        <mxCell id="CRXJROGHJ4yO3ktqUOCc-642" value="" style="endArrow=none;html=1;rounded=0;strokeColor=#160160;strokeWidth=3;" edge="1" parent="1">
          <mxGeometry width="50" height="50" relative="1" as="geometry">
            <mxPoint x="164" y="688" as="sourcePoint" />
            <mxPoint x="204" y="688" as="targetPoint" />
          </mxGeometry>
        </mxCell>
        <mxCell id="CRXJROGHJ4yO3ktqUOCc-643" value="" style="endArrow=none;html=1;rounded=0;strokeColor=#160160;strokeWidth=3;" edge="1" parent="1">
          <mxGeometry width="50" height="50" relative="1" as="geometry">
            <mxPoint x="204" y="688" as="sourcePoint" />
            <mxPoint x="224" y="648" as="targetPoint" />
          </mxGeometry>
        </mxCell>
        <mxCell id="CRXJROGHJ4yO3ktqUOCc-644" value="" style="endArrow=none;html=1;rounded=0;strokeColor=#160160;strokeWidth=3;" edge="1" parent="1">
          <mxGeometry width="50" height="50" relative="1" as="geometry">
            <mxPoint x="224" y="648" as="sourcePoint" />
            <mxPoint x="264" y="648" as="targetPoint" />
          </mxGeometry>
        </mxCell>
        <mxCell id="CRXJROGHJ4yO3ktqUOCc-645" value="" style="endArrow=none;html=1;rounded=0;strokeColor=#160160;strokeWidth=3;" edge="1" parent="1">
          <mxGeometry width="50" height="50" relative="1" as="geometry">
            <mxPoint x="284" y="688" as="sourcePoint" />
            <mxPoint x="264" y="648" as="targetPoint" />
          </mxGeometry>
        </mxCell>
        <mxCell id="CRXJROGHJ4yO3ktqUOCc-646" value="" style="endArrow=none;html=1;rounded=0;strokeColor=#160160;strokeWidth=3;" edge="1" parent="1">
          <mxGeometry width="50" height="50" relative="1" as="geometry">
            <mxPoint x="284" y="688" as="sourcePoint" />
            <mxPoint x="324" y="688" as="targetPoint" />
          </mxGeometry>
        </mxCell>
        <mxCell id="CRXJROGHJ4yO3ktqUOCc-647" value="" style="endArrow=none;html=1;rounded=0;strokeColor=#160160;strokeWidth=3;" edge="1" parent="1">
          <mxGeometry width="50" height="50" relative="1" as="geometry">
            <mxPoint x="324" y="688" as="sourcePoint" />
            <mxPoint x="344" y="648" as="targetPoint" />
          </mxGeometry>
        </mxCell>
        <mxCell id="CRXJROGHJ4yO3ktqUOCc-648" value="" style="endArrow=none;html=1;rounded=0;strokeColor=#160160;strokeWidth=3;" edge="1" parent="1">
          <mxGeometry width="50" height="50" relative="1" as="geometry">
            <mxPoint x="344" y="648" as="sourcePoint" />
            <mxPoint x="384" y="648" as="targetPoint" />
          </mxGeometry>
        </mxCell>
        <mxCell id="CRXJROGHJ4yO3ktqUOCc-649" value="" style="endArrow=none;html=1;rounded=0;strokeColor=#160160;strokeWidth=3;" edge="1" parent="1">
          <mxGeometry width="50" height="50" relative="1" as="geometry">
            <mxPoint x="404" y="688" as="sourcePoint" />
            <mxPoint x="384" y="648" as="targetPoint" />
          </mxGeometry>
        </mxCell>
        <mxCell id="CRXJROGHJ4yO3ktqUOCc-650" value="" style="endArrow=none;html=1;rounded=0;strokeColor=#160160;strokeWidth=3;" edge="1" parent="1">
          <mxGeometry width="50" height="50" relative="1" as="geometry">
            <mxPoint x="404" y="688" as="sourcePoint" />
            <mxPoint x="444" y="688" as="targetPoint" />
          </mxGeometry>
        </mxCell>
        <mxCell id="CRXJROGHJ4yO3ktqUOCc-651" value="" style="endArrow=none;html=1;rounded=0;strokeColor=#160160;strokeWidth=3;" edge="1" parent="1">
          <mxGeometry width="50" height="50" relative="1" as="geometry">
            <mxPoint x="444" y="688" as="sourcePoint" />
            <mxPoint x="464" y="648" as="targetPoint" />
          </mxGeometry>
        </mxCell>
        <mxCell id="CRXJROGHJ4yO3ktqUOCc-652" value="" style="endArrow=none;html=1;rounded=0;strokeColor=#160160;strokeWidth=3;" edge="1" parent="1">
          <mxGeometry width="50" height="50" relative="1" as="geometry">
            <mxPoint x="464" y="648" as="sourcePoint" />
            <mxPoint x="504" y="648" as="targetPoint" />
          </mxGeometry>
        </mxCell>
        <mxCell id="CRXJROGHJ4yO3ktqUOCc-653" value="" style="endArrow=none;html=1;rounded=0;strokeColor=#160160;strokeWidth=3;" edge="1" parent="1">
          <mxGeometry width="50" height="50" relative="1" as="geometry">
            <mxPoint x="145" y="688" as="sourcePoint" />
            <mxPoint x="165" y="648" as="targetPoint" />
          </mxGeometry>
        </mxCell>
        <mxCell id="CRXJROGHJ4yO3ktqUOCc-654" value="" style="endArrow=none;html=1;rounded=0;strokeColor=#160160;strokeWidth=3;" edge="1" parent="1">
          <mxGeometry width="50" height="50" relative="1" as="geometry">
            <mxPoint x="165" y="648" as="sourcePoint" />
            <mxPoint x="205" y="648" as="targetPoint" />
          </mxGeometry>
        </mxCell>
        <mxCell id="CRXJROGHJ4yO3ktqUOCc-655" value="" style="endArrow=none;html=1;rounded=0;strokeColor=#160160;strokeWidth=3;" edge="1" parent="1">
          <mxGeometry width="50" height="50" relative="1" as="geometry">
            <mxPoint x="225" y="688" as="sourcePoint" />
            <mxPoint x="205" y="648" as="targetPoint" />
          </mxGeometry>
        </mxCell>
        <mxCell id="CRXJROGHJ4yO3ktqUOCc-656" value="" style="endArrow=none;html=1;rounded=0;strokeColor=#160160;strokeWidth=3;" edge="1" parent="1">
          <mxGeometry width="50" height="50" relative="1" as="geometry">
            <mxPoint x="225" y="688" as="sourcePoint" />
            <mxPoint x="265" y="688" as="targetPoint" />
          </mxGeometry>
        </mxCell>
        <mxCell id="CRXJROGHJ4yO3ktqUOCc-657" value="" style="endArrow=none;html=1;rounded=0;strokeColor=#160160;strokeWidth=3;" edge="1" parent="1">
          <mxGeometry width="50" height="50" relative="1" as="geometry">
            <mxPoint x="265" y="688" as="sourcePoint" />
            <mxPoint x="285" y="648" as="targetPoint" />
          </mxGeometry>
        </mxCell>
        <mxCell id="CRXJROGHJ4yO3ktqUOCc-658" value="" style="endArrow=none;html=1;rounded=0;strokeColor=#160160;strokeWidth=3;" edge="1" parent="1">
          <mxGeometry width="50" height="50" relative="1" as="geometry">
            <mxPoint x="285" y="648" as="sourcePoint" />
            <mxPoint x="325" y="648" as="targetPoint" />
          </mxGeometry>
        </mxCell>
        <mxCell id="CRXJROGHJ4yO3ktqUOCc-659" value="" style="endArrow=none;html=1;rounded=0;strokeColor=#160160;strokeWidth=3;" edge="1" parent="1">
          <mxGeometry width="50" height="50" relative="1" as="geometry">
            <mxPoint x="345" y="688" as="sourcePoint" />
            <mxPoint x="325" y="648" as="targetPoint" />
          </mxGeometry>
        </mxCell>
        <mxCell id="CRXJROGHJ4yO3ktqUOCc-660" value="" style="endArrow=none;html=1;rounded=0;strokeColor=#160160;strokeWidth=3;" edge="1" parent="1">
          <mxGeometry width="50" height="50" relative="1" as="geometry">
            <mxPoint x="345" y="688" as="sourcePoint" />
            <mxPoint x="385" y="688" as="targetPoint" />
          </mxGeometry>
        </mxCell>
        <mxCell id="CRXJROGHJ4yO3ktqUOCc-661" value="" style="endArrow=none;html=1;rounded=0;strokeColor=#160160;strokeWidth=3;" edge="1" parent="1">
          <mxGeometry width="50" height="50" relative="1" as="geometry">
            <mxPoint x="385" y="688" as="sourcePoint" />
            <mxPoint x="405" y="648" as="targetPoint" />
          </mxGeometry>
        </mxCell>
        <mxCell id="CRXJROGHJ4yO3ktqUOCc-662" value="" style="endArrow=none;html=1;rounded=0;strokeColor=#160160;strokeWidth=3;" edge="1" parent="1">
          <mxGeometry width="50" height="50" relative="1" as="geometry">
            <mxPoint x="405" y="648" as="sourcePoint" />
            <mxPoint x="445" y="648" as="targetPoint" />
          </mxGeometry>
        </mxCell>
        <mxCell id="CRXJROGHJ4yO3ktqUOCc-663" value="" style="endArrow=none;html=1;rounded=0;strokeColor=#160160;strokeWidth=3;" edge="1" parent="1">
          <mxGeometry width="50" height="50" relative="1" as="geometry">
            <mxPoint x="465" y="688" as="sourcePoint" />
            <mxPoint x="445" y="648" as="targetPoint" />
          </mxGeometry>
        </mxCell>
        <mxCell id="CRXJROGHJ4yO3ktqUOCc-664" value="" style="endArrow=none;html=1;rounded=0;strokeColor=#160160;strokeWidth=3;" edge="1" parent="1">
          <mxGeometry width="50" height="50" relative="1" as="geometry">
            <mxPoint x="465" y="688" as="sourcePoint" />
            <mxPoint x="505" y="688" as="targetPoint" />
          </mxGeometry>
        </mxCell>
        <mxCell id="CRXJROGHJ4yO3ktqUOCc-665" value="" style="endArrow=none;html=1;rounded=0;strokeColor=#160160;strokeWidth=3;" edge="1" parent="1">
          <mxGeometry width="50" height="50" relative="1" as="geometry">
            <mxPoint x="523" y="688" as="sourcePoint" />
            <mxPoint x="503" y="648" as="targetPoint" />
          </mxGeometry>
        </mxCell>
        <mxCell id="CRXJROGHJ4yO3ktqUOCc-666" value="" style="endArrow=none;html=1;rounded=0;strokeColor=#160160;strokeWidth=3;" edge="1" parent="1">
          <mxGeometry width="50" height="50" relative="1" as="geometry">
            <mxPoint x="523" y="688" as="sourcePoint" />
            <mxPoint x="563" y="688" as="targetPoint" />
          </mxGeometry>
        </mxCell>
        <mxCell id="CRXJROGHJ4yO3ktqUOCc-667" value="" style="endArrow=none;html=1;rounded=0;strokeColor=#160160;strokeWidth=3;" edge="1" parent="1">
          <mxGeometry width="50" height="50" relative="1" as="geometry">
            <mxPoint x="563" y="688" as="sourcePoint" />
            <mxPoint x="583" y="648" as="targetPoint" />
          </mxGeometry>
        </mxCell>
        <mxCell id="CRXJROGHJ4yO3ktqUOCc-668" value="" style="endArrow=none;html=1;rounded=0;strokeColor=#160160;strokeWidth=3;" edge="1" parent="1">
          <mxGeometry width="50" height="50" relative="1" as="geometry">
            <mxPoint x="583" y="648" as="sourcePoint" />
            <mxPoint x="623" y="648" as="targetPoint" />
          </mxGeometry>
        </mxCell>
        <mxCell id="CRXJROGHJ4yO3ktqUOCc-669" value="" style="endArrow=none;html=1;rounded=0;strokeColor=#160160;strokeWidth=3;" edge="1" parent="1">
          <mxGeometry width="50" height="50" relative="1" as="geometry">
            <mxPoint x="643" y="688" as="sourcePoint" />
            <mxPoint x="623" y="648" as="targetPoint" />
          </mxGeometry>
        </mxCell>
        <mxCell id="CRXJROGHJ4yO3ktqUOCc-670" value="" style="endArrow=none;html=1;rounded=0;strokeColor=#160160;strokeWidth=3;" edge="1" parent="1">
          <mxGeometry width="50" height="50" relative="1" as="geometry">
            <mxPoint x="643" y="688" as="sourcePoint" />
            <mxPoint x="683" y="688" as="targetPoint" />
          </mxGeometry>
        </mxCell>
        <mxCell id="CRXJROGHJ4yO3ktqUOCc-671" value="" style="endArrow=none;html=1;rounded=0;strokeColor=#160160;strokeWidth=3;" edge="1" parent="1">
          <mxGeometry width="50" height="50" relative="1" as="geometry">
            <mxPoint x="683" y="688" as="sourcePoint" />
            <mxPoint x="703" y="648" as="targetPoint" />
          </mxGeometry>
        </mxCell>
        <mxCell id="CRXJROGHJ4yO3ktqUOCc-672" value="" style="endArrow=none;html=1;rounded=0;strokeColor=#160160;strokeWidth=3;" edge="1" parent="1">
          <mxGeometry width="50" height="50" relative="1" as="geometry">
            <mxPoint x="703" y="648" as="sourcePoint" />
            <mxPoint x="743" y="648" as="targetPoint" />
          </mxGeometry>
        </mxCell>
        <mxCell id="CRXJROGHJ4yO3ktqUOCc-673" value="" style="endArrow=none;html=1;rounded=0;strokeColor=#160160;strokeWidth=3;" edge="1" parent="1">
          <mxGeometry width="50" height="50" relative="1" as="geometry">
            <mxPoint x="763" y="688" as="sourcePoint" />
            <mxPoint x="743" y="648" as="targetPoint" />
          </mxGeometry>
        </mxCell>
        <mxCell id="CRXJROGHJ4yO3ktqUOCc-674" value="" style="endArrow=none;html=1;rounded=0;strokeColor=#160160;strokeWidth=3;" edge="1" parent="1">
          <mxGeometry width="50" height="50" relative="1" as="geometry">
            <mxPoint x="763" y="688" as="sourcePoint" />
            <mxPoint x="803" y="688" as="targetPoint" />
          </mxGeometry>
        </mxCell>
        <mxCell id="CRXJROGHJ4yO3ktqUOCc-675" value="" style="endArrow=none;html=1;rounded=0;strokeColor=#160160;strokeWidth=3;" edge="1" parent="1">
          <mxGeometry width="50" height="50" relative="1" as="geometry">
            <mxPoint x="803" y="688" as="sourcePoint" />
            <mxPoint x="823" y="648" as="targetPoint" />
          </mxGeometry>
        </mxCell>
        <mxCell id="CRXJROGHJ4yO3ktqUOCc-676" value="" style="endArrow=none;html=1;rounded=0;strokeColor=#160160;strokeWidth=3;" edge="1" parent="1">
          <mxGeometry width="50" height="50" relative="1" as="geometry">
            <mxPoint x="823" y="648" as="sourcePoint" />
            <mxPoint x="863" y="648" as="targetPoint" />
          </mxGeometry>
        </mxCell>
        <mxCell id="CRXJROGHJ4yO3ktqUOCc-677" value="" style="endArrow=none;html=1;rounded=0;strokeColor=#160160;strokeWidth=3;" edge="1" parent="1">
          <mxGeometry width="50" height="50" relative="1" as="geometry">
            <mxPoint x="504" y="688" as="sourcePoint" />
            <mxPoint x="524" y="648" as="targetPoint" />
          </mxGeometry>
        </mxCell>
        <mxCell id="CRXJROGHJ4yO3ktqUOCc-678" value="" style="endArrow=none;html=1;rounded=0;strokeColor=#160160;strokeWidth=3;" edge="1" parent="1">
          <mxGeometry width="50" height="50" relative="1" as="geometry">
            <mxPoint x="524" y="648" as="sourcePoint" />
            <mxPoint x="564" y="648" as="targetPoint" />
          </mxGeometry>
        </mxCell>
        <mxCell id="CRXJROGHJ4yO3ktqUOCc-679" value="" style="endArrow=none;html=1;rounded=0;strokeColor=#160160;strokeWidth=3;" edge="1" parent="1">
          <mxGeometry width="50" height="50" relative="1" as="geometry">
            <mxPoint x="584" y="688" as="sourcePoint" />
            <mxPoint x="564" y="648" as="targetPoint" />
          </mxGeometry>
        </mxCell>
        <mxCell id="CRXJROGHJ4yO3ktqUOCc-680" value="" style="endArrow=none;html=1;rounded=0;strokeColor=#160160;strokeWidth=3;" edge="1" parent="1">
          <mxGeometry width="50" height="50" relative="1" as="geometry">
            <mxPoint x="584" y="688" as="sourcePoint" />
            <mxPoint x="624" y="688" as="targetPoint" />
          </mxGeometry>
        </mxCell>
        <mxCell id="CRXJROGHJ4yO3ktqUOCc-681" value="" style="endArrow=none;html=1;rounded=0;strokeColor=#160160;strokeWidth=3;" edge="1" parent="1">
          <mxGeometry width="50" height="50" relative="1" as="geometry">
            <mxPoint x="624" y="688" as="sourcePoint" />
            <mxPoint x="644" y="648" as="targetPoint" />
          </mxGeometry>
        </mxCell>
        <mxCell id="CRXJROGHJ4yO3ktqUOCc-682" value="" style="endArrow=none;html=1;rounded=0;strokeColor=#160160;strokeWidth=3;" edge="1" parent="1">
          <mxGeometry width="50" height="50" relative="1" as="geometry">
            <mxPoint x="644" y="648" as="sourcePoint" />
            <mxPoint x="684" y="648" as="targetPoint" />
          </mxGeometry>
        </mxCell>
        <mxCell id="CRXJROGHJ4yO3ktqUOCc-683" value="" style="endArrow=none;html=1;rounded=0;strokeColor=#160160;strokeWidth=3;" edge="1" parent="1">
          <mxGeometry width="50" height="50" relative="1" as="geometry">
            <mxPoint x="704" y="688" as="sourcePoint" />
            <mxPoint x="684" y="648" as="targetPoint" />
          </mxGeometry>
        </mxCell>
        <mxCell id="CRXJROGHJ4yO3ktqUOCc-684" value="" style="endArrow=none;html=1;rounded=0;strokeColor=#160160;strokeWidth=3;" edge="1" parent="1">
          <mxGeometry width="50" height="50" relative="1" as="geometry">
            <mxPoint x="704" y="688" as="sourcePoint" />
            <mxPoint x="744" y="688" as="targetPoint" />
          </mxGeometry>
        </mxCell>
        <mxCell id="CRXJROGHJ4yO3ktqUOCc-685" value="" style="endArrow=none;html=1;rounded=0;strokeColor=#160160;strokeWidth=3;" edge="1" parent="1">
          <mxGeometry width="50" height="50" relative="1" as="geometry">
            <mxPoint x="744" y="688" as="sourcePoint" />
            <mxPoint x="764" y="648" as="targetPoint" />
          </mxGeometry>
        </mxCell>
        <mxCell id="CRXJROGHJ4yO3ktqUOCc-686" value="" style="endArrow=none;html=1;rounded=0;strokeColor=#160160;strokeWidth=3;" edge="1" parent="1">
          <mxGeometry width="50" height="50" relative="1" as="geometry">
            <mxPoint x="764" y="648" as="sourcePoint" />
            <mxPoint x="804" y="648" as="targetPoint" />
          </mxGeometry>
        </mxCell>
        <mxCell id="CRXJROGHJ4yO3ktqUOCc-687" value="" style="endArrow=none;html=1;rounded=0;strokeColor=#160160;strokeWidth=3;" edge="1" parent="1">
          <mxGeometry width="50" height="50" relative="1" as="geometry">
            <mxPoint x="824" y="688" as="sourcePoint" />
            <mxPoint x="804" y="648" as="targetPoint" />
          </mxGeometry>
        </mxCell>
        <mxCell id="CRXJROGHJ4yO3ktqUOCc-688" value="" style="endArrow=none;html=1;rounded=0;strokeColor=#160160;strokeWidth=3;" edge="1" parent="1">
          <mxGeometry width="50" height="50" relative="1" as="geometry">
            <mxPoint x="824" y="688" as="sourcePoint" />
            <mxPoint x="864" y="688" as="targetPoint" />
          </mxGeometry>
        </mxCell>
        <mxCell id="CRXJROGHJ4yO3ktqUOCc-689" value="" style="endArrow=none;html=1;rounded=0;strokeColor=#0a0a0a;strokeWidth=3;" edge="1" parent="1">
          <mxGeometry width="50" height="50" relative="1" as="geometry">
            <mxPoint x="675" y="588" as="sourcePoint" />
            <mxPoint x="715" y="588" as="targetPoint" />
          </mxGeometry>
        </mxCell>
        <mxCell id="CRXJROGHJ4yO3ktqUOCc-690" value="" style="endArrow=none;html=1;rounded=0;strokeColor=#0a0a0a;strokeWidth=3;" edge="1" parent="1">
          <mxGeometry width="50" height="50" relative="1" as="geometry">
            <mxPoint x="735" y="628" as="sourcePoint" />
            <mxPoint x="715" y="588" as="targetPoint" />
          </mxGeometry>
        </mxCell>
        <mxCell id="CRXJROGHJ4yO3ktqUOCc-691" value="" style="endArrow=none;html=1;rounded=0;strokeColor=#0a0a0a;strokeWidth=3;" edge="1" parent="1">
          <mxGeometry width="50" height="50" relative="1" as="geometry">
            <mxPoint x="735" y="628" as="sourcePoint" />
            <mxPoint x="775" y="628" as="targetPoint" />
          </mxGeometry>
        </mxCell>
        <mxCell id="CRXJROGHJ4yO3ktqUOCc-692" value="" style="endArrow=classic;html=1;rounded=0;strokeColor=#0a0a0a;strokeWidth=3;endFill=1;" edge="1" parent="1">
          <mxGeometry width="50" height="50" relative="1" as="geometry">
            <mxPoint x="775" y="628" as="sourcePoint" />
            <mxPoint x="795" y="588" as="targetPoint" />
          </mxGeometry>
        </mxCell>
        <mxCell id="CRXJROGHJ4yO3ktqUOCc-693" value="" style="endArrow=none;html=1;rounded=0;strokeColor=#0a0a0a;strokeWidth=3;" edge="1" parent="1">
          <mxGeometry width="50" height="50" relative="1" as="geometry">
            <mxPoint x="795" y="588" as="sourcePoint" />
            <mxPoint x="835" y="588" as="targetPoint" />
          </mxGeometry>
        </mxCell>
        <mxCell id="CRXJROGHJ4yO3ktqUOCc-694" value="" style="endArrow=none;html=1;rounded=0;strokeColor=#0a0a0a;strokeWidth=3;" edge="1" parent="1">
          <mxGeometry width="50" height="50" relative="1" as="geometry">
            <mxPoint x="855" y="628" as="sourcePoint" />
            <mxPoint x="835" y="588" as="targetPoint" />
          </mxGeometry>
        </mxCell>
        <mxCell id="CRXJROGHJ4yO3ktqUOCc-695" value="" style="endArrow=none;html=1;rounded=0;strokeColor=#0a0a0a;strokeWidth=3;" edge="1" parent="1">
          <mxGeometry width="50" height="50" relative="1" as="geometry">
            <mxPoint x="855" y="628" as="sourcePoint" />
            <mxPoint x="895" y="628" as="targetPoint" />
          </mxGeometry>
        </mxCell>
        <mxCell id="CRXJROGHJ4yO3ktqUOCc-696" value="" style="endArrow=classic;html=1;rounded=0;strokeColor=#0a0a0a;strokeWidth=3;endFill=1;" edge="1" parent="1">
          <mxGeometry width="50" height="50" relative="1" as="geometry">
            <mxPoint x="895" y="628" as="sourcePoint" />
            <mxPoint x="915" y="588" as="targetPoint" />
          </mxGeometry>
        </mxCell>
        <mxCell id="CRXJROGHJ4yO3ktqUOCc-697" value="" style="endArrow=none;html=1;rounded=0;strokeColor=#0a0a0a;strokeWidth=3;" edge="1" parent="1">
          <mxGeometry width="50" height="50" relative="1" as="geometry">
            <mxPoint x="915" y="588" as="sourcePoint" />
            <mxPoint x="955" y="588" as="targetPoint" />
          </mxGeometry>
        </mxCell>
        <mxCell id="CRXJROGHJ4yO3ktqUOCc-698" value="" style="endArrow=none;html=1;rounded=0;strokeColor=#0a0a0a;strokeWidth=3;" edge="1" parent="1">
          <mxGeometry width="50" height="50" relative="1" as="geometry">
            <mxPoint x="975" y="628" as="sourcePoint" />
            <mxPoint x="955" y="588" as="targetPoint" />
          </mxGeometry>
        </mxCell>
        <mxCell id="CRXJROGHJ4yO3ktqUOCc-699" value="" style="endArrow=none;html=1;rounded=0;strokeColor=#0a0a0a;strokeWidth=3;" edge="1" parent="1">
          <mxGeometry width="50" height="50" relative="1" as="geometry">
            <mxPoint x="975" y="628" as="sourcePoint" />
            <mxPoint x="1015" y="628" as="targetPoint" />
          </mxGeometry>
        </mxCell>
        <mxCell id="CRXJROGHJ4yO3ktqUOCc-700" value="" style="endArrow=none;html=1;rounded=0;strokeColor=#0a0a0a;strokeWidth=3;dashed=1;" edge="1" parent="1">
          <mxGeometry width="50" height="50" relative="1" as="geometry">
            <mxPoint x="676" y="628" as="sourcePoint" />
            <mxPoint x="716" y="628" as="targetPoint" />
          </mxGeometry>
        </mxCell>
        <mxCell id="CRXJROGHJ4yO3ktqUOCc-701" value="" style="endArrow=none;html=1;rounded=0;strokeColor=#0a0a0a;strokeWidth=3;dashed=1;" edge="1" parent="1">
          <mxGeometry width="50" height="50" relative="1" as="geometry">
            <mxPoint x="716" y="628" as="sourcePoint" />
            <mxPoint x="736" y="588" as="targetPoint" />
          </mxGeometry>
        </mxCell>
        <mxCell id="CRXJROGHJ4yO3ktqUOCc-702" value="" style="endArrow=none;html=1;rounded=0;strokeColor=#0a0a0a;strokeWidth=3;dashed=1;" edge="1" parent="1">
          <mxGeometry width="50" height="50" relative="1" as="geometry">
            <mxPoint x="736" y="588" as="sourcePoint" />
            <mxPoint x="776" y="588" as="targetPoint" />
          </mxGeometry>
        </mxCell>
        <mxCell id="CRXJROGHJ4yO3ktqUOCc-703" value="" style="endArrow=none;html=1;rounded=0;strokeColor=#0a0a0a;strokeWidth=3;dashed=1;" edge="1" parent="1">
          <mxGeometry width="50" height="50" relative="1" as="geometry">
            <mxPoint x="796" y="628" as="sourcePoint" />
            <mxPoint x="776" y="588" as="targetPoint" />
          </mxGeometry>
        </mxCell>
        <mxCell id="CRXJROGHJ4yO3ktqUOCc-704" value="" style="endArrow=none;html=1;rounded=0;strokeColor=#0a0a0a;strokeWidth=3;dashed=1;" edge="1" parent="1">
          <mxGeometry width="50" height="50" relative="1" as="geometry">
            <mxPoint x="796" y="628" as="sourcePoint" />
            <mxPoint x="836" y="628" as="targetPoint" />
          </mxGeometry>
        </mxCell>
        <mxCell id="CRXJROGHJ4yO3ktqUOCc-705" value="" style="endArrow=none;html=1;rounded=0;strokeColor=#0a0a0a;strokeWidth=3;dashed=1;" edge="1" parent="1">
          <mxGeometry width="50" height="50" relative="1" as="geometry">
            <mxPoint x="836" y="628" as="sourcePoint" />
            <mxPoint x="856" y="588" as="targetPoint" />
          </mxGeometry>
        </mxCell>
        <mxCell id="CRXJROGHJ4yO3ktqUOCc-706" value="" style="endArrow=none;html=1;rounded=0;strokeColor=#0a0a0a;strokeWidth=3;dashed=1;" edge="1" parent="1">
          <mxGeometry width="50" height="50" relative="1" as="geometry">
            <mxPoint x="856" y="588" as="sourcePoint" />
            <mxPoint x="896" y="588" as="targetPoint" />
          </mxGeometry>
        </mxCell>
        <mxCell id="CRXJROGHJ4yO3ktqUOCc-707" value="" style="endArrow=none;html=1;rounded=0;strokeColor=#0a0a0a;strokeWidth=3;dashed=1;" edge="1" parent="1">
          <mxGeometry width="50" height="50" relative="1" as="geometry">
            <mxPoint x="916" y="628" as="sourcePoint" />
            <mxPoint x="896" y="588" as="targetPoint" />
          </mxGeometry>
        </mxCell>
        <mxCell id="CRXJROGHJ4yO3ktqUOCc-708" value="" style="endArrow=none;html=1;rounded=0;strokeColor=#0a0a0a;strokeWidth=3;dashed=1;" edge="1" parent="1">
          <mxGeometry width="50" height="50" relative="1" as="geometry">
            <mxPoint x="916" y="628" as="sourcePoint" />
            <mxPoint x="956" y="628" as="targetPoint" />
          </mxGeometry>
        </mxCell>
        <mxCell id="CRXJROGHJ4yO3ktqUOCc-709" value="" style="endArrow=none;html=1;rounded=0;strokeColor=#0a0a0a;strokeWidth=3;dashed=1;" edge="1" parent="1">
          <mxGeometry width="50" height="50" relative="1" as="geometry">
            <mxPoint x="956" y="628" as="sourcePoint" />
            <mxPoint x="976" y="588" as="targetPoint" />
          </mxGeometry>
        </mxCell>
        <mxCell id="CRXJROGHJ4yO3ktqUOCc-710" value="" style="endArrow=none;html=1;rounded=0;strokeColor=#0a0a0a;strokeWidth=3;dashed=1;" edge="1" parent="1">
          <mxGeometry width="50" height="50" relative="1" as="geometry">
            <mxPoint x="976" y="588" as="sourcePoint" />
            <mxPoint x="1016" y="588" as="targetPoint" />
          </mxGeometry>
        </mxCell>
        <mxCell id="CRXJROGHJ4yO3ktqUOCc-711" value="DQS_c" style="text;html=1;align=center;verticalAlign=middle;whiteSpace=wrap;rounded=0;fontStyle=1" vertex="1" parent="1">
          <mxGeometry x="75" y="578" width="60" height="20" as="geometry" />
        </mxCell>
        <mxCell id="CRXJROGHJ4yO3ktqUOCc-712" value="DQS_t" style="text;html=1;align=center;verticalAlign=middle;whiteSpace=wrap;rounded=0;fontStyle=1" vertex="1" parent="1">
          <mxGeometry x="75" y="618" width="60" height="20" as="geometry" />
        </mxCell>
        <mxCell id="CRXJROGHJ4yO3ktqUOCc-713" value="DQ" style="text;html=1;align=center;verticalAlign=middle;whiteSpace=wrap;rounded=0;fontColor=#160160;fontStyle=1" vertex="1" parent="1">
          <mxGeometry x="75" y="658" width="60" height="20" as="geometry" />
        </mxCell>
        <mxCell id="CRXJROGHJ4yO3ktqUOCc-714" value="" style="endArrow=none;dashed=1;html=1;rounded=0;" edge="1" parent="1" source="CRXJROGHJ4yO3ktqUOCc-759">
          <mxGeometry width="50" height="50" relative="1" as="geometry">
            <mxPoint x="185" y="1188" as="sourcePoint" />
            <mxPoint x="185" y="538" as="targetPoint" />
          </mxGeometry>
        </mxCell>
        <mxCell id="CRXJROGHJ4yO3ktqUOCc-715" value="" style="endArrow=none;dashed=1;html=1;rounded=0;" edge="1" parent="1" source="CRXJROGHJ4yO3ktqUOCc-760">
          <mxGeometry width="50" height="50" relative="1" as="geometry">
            <mxPoint x="245" y="1188" as="sourcePoint" />
            <mxPoint x="245" y="538" as="targetPoint" />
          </mxGeometry>
        </mxCell>
        <mxCell id="CRXJROGHJ4yO3ktqUOCc-716" value="" style="endArrow=none;html=1;rounded=0;strokeColor=#160160;strokeWidth=3;" edge="1" parent="1">
          <mxGeometry width="50" height="50" relative="1" as="geometry">
            <mxPoint x="862" y="687.71" as="sourcePoint" />
            <mxPoint x="882" y="647.71" as="targetPoint" />
          </mxGeometry>
        </mxCell>
        <mxCell id="CRXJROGHJ4yO3ktqUOCc-717" value="" style="endArrow=none;html=1;rounded=0;strokeColor=#160160;strokeWidth=3;" edge="1" parent="1">
          <mxGeometry width="50" height="50" relative="1" as="geometry">
            <mxPoint x="882" y="647.71" as="sourcePoint" />
            <mxPoint x="922" y="647.71" as="targetPoint" />
          </mxGeometry>
        </mxCell>
        <mxCell id="CRXJROGHJ4yO3ktqUOCc-718" value="" style="endArrow=none;html=1;rounded=0;strokeColor=#160160;strokeWidth=3;" edge="1" parent="1">
          <mxGeometry width="50" height="50" relative="1" as="geometry">
            <mxPoint x="942" y="687.71" as="sourcePoint" />
            <mxPoint x="922" y="647.71" as="targetPoint" />
          </mxGeometry>
        </mxCell>
        <mxCell id="CRXJROGHJ4yO3ktqUOCc-719" value="" style="endArrow=none;html=1;rounded=0;strokeColor=#160160;strokeWidth=3;" edge="1" parent="1">
          <mxGeometry width="50" height="50" relative="1" as="geometry">
            <mxPoint x="942" y="687.71" as="sourcePoint" />
            <mxPoint x="982" y="687.71" as="targetPoint" />
          </mxGeometry>
        </mxCell>
        <mxCell id="CRXJROGHJ4yO3ktqUOCc-720" value="" style="endArrow=none;html=1;rounded=0;strokeColor=#160160;strokeWidth=3;" edge="1" parent="1">
          <mxGeometry width="50" height="50" relative="1" as="geometry">
            <mxPoint x="982" y="687.71" as="sourcePoint" />
            <mxPoint x="1002" y="647.71" as="targetPoint" />
          </mxGeometry>
        </mxCell>
        <mxCell id="CRXJROGHJ4yO3ktqUOCc-721" value="" style="endArrow=none;html=1;rounded=0;strokeColor=#160160;strokeWidth=3;" edge="1" parent="1">
          <mxGeometry width="50" height="50" relative="1" as="geometry">
            <mxPoint x="883" y="687.71" as="sourcePoint" />
            <mxPoint x="863" y="647.71" as="targetPoint" />
          </mxGeometry>
        </mxCell>
        <mxCell id="CRXJROGHJ4yO3ktqUOCc-722" value="" style="endArrow=none;html=1;rounded=0;strokeColor=#160160;strokeWidth=3;" edge="1" parent="1">
          <mxGeometry width="50" height="50" relative="1" as="geometry">
            <mxPoint x="883" y="687.71" as="sourcePoint" />
            <mxPoint x="923" y="687.71" as="targetPoint" />
          </mxGeometry>
        </mxCell>
        <mxCell id="CRXJROGHJ4yO3ktqUOCc-723" value="" style="endArrow=none;html=1;rounded=0;strokeColor=#160160;strokeWidth=3;" edge="1" parent="1">
          <mxGeometry width="50" height="50" relative="1" as="geometry">
            <mxPoint x="923" y="687.71" as="sourcePoint" />
            <mxPoint x="943" y="647.71" as="targetPoint" />
          </mxGeometry>
        </mxCell>
        <mxCell id="CRXJROGHJ4yO3ktqUOCc-724" value="" style="endArrow=none;html=1;rounded=0;strokeColor=#160160;strokeWidth=3;" edge="1" parent="1">
          <mxGeometry width="50" height="50" relative="1" as="geometry">
            <mxPoint x="943" y="647.71" as="sourcePoint" />
            <mxPoint x="983" y="647.71" as="targetPoint" />
          </mxGeometry>
        </mxCell>
        <mxCell id="CRXJROGHJ4yO3ktqUOCc-725" value="" style="endArrow=none;html=1;rounded=0;strokeColor=#160160;strokeWidth=3;" edge="1" parent="1">
          <mxGeometry width="50" height="50" relative="1" as="geometry">
            <mxPoint x="1003" y="687.71" as="sourcePoint" />
            <mxPoint x="983" y="647.71" as="targetPoint" />
          </mxGeometry>
        </mxCell>
        <mxCell id="CRXJROGHJ4yO3ktqUOCc-726" value="" style="endArrow=none;html=1;rounded=0;strokeColor=#419805;strokeWidth=3;" edge="1" parent="1">
          <mxGeometry width="50" height="50" relative="1" as="geometry">
            <mxPoint x="376" y="748" as="sourcePoint" />
            <mxPoint x="396" y="708" as="targetPoint" />
          </mxGeometry>
        </mxCell>
        <mxCell id="CRXJROGHJ4yO3ktqUOCc-727" value="" style="endArrow=none;html=1;rounded=0;strokeColor=#419805;strokeWidth=3;" edge="1" parent="1">
          <mxGeometry width="50" height="50" relative="1" as="geometry">
            <mxPoint x="396" y="708" as="sourcePoint" />
            <mxPoint x="496" y="708" as="targetPoint" />
          </mxGeometry>
        </mxCell>
        <mxCell id="CRXJROGHJ4yO3ktqUOCc-728" value="" style="endArrow=none;html=1;rounded=0;strokeColor=#419805;strokeWidth=3;" edge="1" parent="1">
          <mxGeometry width="50" height="50" relative="1" as="geometry">
            <mxPoint x="516" y="748" as="sourcePoint" />
            <mxPoint x="496" y="708" as="targetPoint" />
          </mxGeometry>
        </mxCell>
        <mxCell id="CRXJROGHJ4yO3ktqUOCc-729" value="" style="endArrow=none;html=1;rounded=0;strokeColor=#419805;strokeWidth=3;" edge="1" parent="1">
          <mxGeometry width="50" height="50" relative="1" as="geometry">
            <mxPoint x="516" y="748" as="sourcePoint" />
            <mxPoint x="616" y="748" as="targetPoint" />
          </mxGeometry>
        </mxCell>
        <mxCell id="CRXJROGHJ4yO3ktqUOCc-730" value="" style="endArrow=none;html=1;rounded=0;strokeColor=#419805;strokeWidth=3;" edge="1" parent="1">
          <mxGeometry width="50" height="50" relative="1" as="geometry">
            <mxPoint x="616" y="748" as="sourcePoint" />
            <mxPoint x="636" y="708" as="targetPoint" />
          </mxGeometry>
        </mxCell>
        <mxCell id="CRXJROGHJ4yO3ktqUOCc-731" value="" style="endArrow=none;html=1;rounded=0;strokeColor=#419805;strokeWidth=3;" edge="1" parent="1">
          <mxGeometry width="50" height="50" relative="1" as="geometry">
            <mxPoint x="636" y="708" as="sourcePoint" />
            <mxPoint x="736" y="708" as="targetPoint" />
          </mxGeometry>
        </mxCell>
        <mxCell id="CRXJROGHJ4yO3ktqUOCc-732" value="" style="endArrow=none;html=1;rounded=0;strokeColor=#419805;strokeWidth=3;" edge="1" parent="1">
          <mxGeometry width="50" height="50" relative="1" as="geometry">
            <mxPoint x="756" y="748" as="sourcePoint" />
            <mxPoint x="736" y="708" as="targetPoint" />
          </mxGeometry>
        </mxCell>
        <mxCell id="CRXJROGHJ4yO3ktqUOCc-733" value="" style="endArrow=none;html=1;rounded=0;strokeColor=#419805;strokeWidth=3;" edge="1" parent="1">
          <mxGeometry width="50" height="50" relative="1" as="geometry">
            <mxPoint x="756" y="748" as="sourcePoint" />
            <mxPoint x="856" y="748" as="targetPoint" />
          </mxGeometry>
        </mxCell>
        <mxCell id="CRXJROGHJ4yO3ktqUOCc-734" value="" style="endArrow=none;html=1;rounded=0;strokeColor=#419805;strokeWidth=3;" edge="1" parent="1">
          <mxGeometry width="50" height="50" relative="1" as="geometry">
            <mxPoint x="856" y="748" as="sourcePoint" />
            <mxPoint x="876" y="708" as="targetPoint" />
          </mxGeometry>
        </mxCell>
        <mxCell id="CRXJROGHJ4yO3ktqUOCc-735" value="" style="endArrow=none;html=1;rounded=0;strokeColor=#419805;strokeWidth=3;" edge="1" parent="1">
          <mxGeometry width="50" height="50" relative="1" as="geometry">
            <mxPoint x="876" y="708" as="sourcePoint" />
            <mxPoint x="976" y="708" as="targetPoint" />
          </mxGeometry>
        </mxCell>
        <mxCell id="CRXJROGHJ4yO3ktqUOCc-736" value="" style="endArrow=none;html=1;rounded=0;strokeColor=#419805;strokeWidth=3;" edge="1" parent="1">
          <mxGeometry width="50" height="50" relative="1" as="geometry">
            <mxPoint x="996" y="748" as="sourcePoint" />
            <mxPoint x="976" y="708" as="targetPoint" />
          </mxGeometry>
        </mxCell>
        <mxCell id="CRXJROGHJ4yO3ktqUOCc-737" value="" style="endArrow=none;html=1;rounded=0;strokeColor=#419805;strokeWidth=3;" edge="1" parent="1">
          <mxGeometry width="50" height="50" relative="1" as="geometry">
            <mxPoint x="996" y="748" as="sourcePoint" />
            <mxPoint x="1030" y="748" as="targetPoint" />
          </mxGeometry>
        </mxCell>
        <mxCell id="CRXJROGHJ4yO3ktqUOCc-738" value="" style="endArrow=none;html=1;rounded=0;strokeColor=#419805;strokeWidth=3;" edge="1" parent="1">
          <mxGeometry width="50" height="50" relative="1" as="geometry">
            <mxPoint x="346" y="748" as="sourcePoint" />
            <mxPoint x="376" y="748" as="targetPoint" />
          </mxGeometry>
        </mxCell>
        <mxCell id="CRXJROGHJ4yO3ktqUOCc-739" value="" style="endArrow=none;html=1;rounded=0;strokeColor=#419805;strokeWidth=3;" edge="1" parent="1">
          <mxGeometry width="50" height="50" relative="1" as="geometry">
            <mxPoint x="376" y="808" as="sourcePoint" />
            <mxPoint x="396" y="768" as="targetPoint" />
          </mxGeometry>
        </mxCell>
        <mxCell id="CRXJROGHJ4yO3ktqUOCc-740" value="" style="endArrow=none;html=1;rounded=0;strokeColor=#419805;strokeWidth=3;" edge="1" parent="1">
          <mxGeometry width="50" height="50" relative="1" as="geometry">
            <mxPoint x="396" y="768" as="sourcePoint" />
            <mxPoint x="616" y="768" as="targetPoint" />
          </mxGeometry>
        </mxCell>
        <mxCell id="CRXJROGHJ4yO3ktqUOCc-741" value="" style="endArrow=none;html=1;rounded=0;strokeColor=#419805;strokeWidth=3;" edge="1" parent="1">
          <mxGeometry width="50" height="50" relative="1" as="geometry">
            <mxPoint x="636" y="808" as="sourcePoint" />
            <mxPoint x="616" y="768" as="targetPoint" />
          </mxGeometry>
        </mxCell>
        <mxCell id="CRXJROGHJ4yO3ktqUOCc-742" value="" style="endArrow=none;html=1;rounded=0;strokeColor=#419805;strokeWidth=3;" edge="1" parent="1">
          <mxGeometry width="50" height="50" relative="1" as="geometry">
            <mxPoint x="396" y="808" as="sourcePoint" />
            <mxPoint x="616" y="808" as="targetPoint" />
          </mxGeometry>
        </mxCell>
        <mxCell id="CRXJROGHJ4yO3ktqUOCc-743" value="" style="endArrow=none;html=1;rounded=0;strokeColor=#419805;strokeWidth=3;" edge="1" parent="1">
          <mxGeometry width="50" height="50" relative="1" as="geometry">
            <mxPoint x="616" y="808" as="sourcePoint" />
            <mxPoint x="636" y="768" as="targetPoint" />
          </mxGeometry>
        </mxCell>
        <mxCell id="CRXJROGHJ4yO3ktqUOCc-744" value="" style="endArrow=none;html=1;rounded=0;strokeColor=#419805;strokeWidth=3;" edge="1" parent="1">
          <mxGeometry width="50" height="50" relative="1" as="geometry">
            <mxPoint x="346" y="808" as="sourcePoint" />
            <mxPoint x="376" y="808" as="targetPoint" />
          </mxGeometry>
        </mxCell>
        <mxCell id="CRXJROGHJ4yO3ktqUOCc-745" value="" style="endArrow=none;html=1;rounded=0;strokeColor=#419805;strokeWidth=3;" edge="1" parent="1">
          <mxGeometry width="50" height="50" relative="1" as="geometry">
            <mxPoint x="396" y="808" as="sourcePoint" />
            <mxPoint x="376" y="768" as="targetPoint" />
          </mxGeometry>
        </mxCell>
        <mxCell id="CRXJROGHJ4yO3ktqUOCc-746" value="" style="endArrow=none;html=1;rounded=0;strokeColor=#419805;strokeWidth=3;" edge="1" parent="1">
          <mxGeometry width="50" height="50" relative="1" as="geometry">
            <mxPoint x="346" y="768" as="sourcePoint" />
            <mxPoint x="376" y="768" as="targetPoint" />
          </mxGeometry>
        </mxCell>
        <mxCell id="CRXJROGHJ4yO3ktqUOCc-747" value="" style="endArrow=none;html=1;rounded=0;strokeColor=#419805;strokeWidth=3;" edge="1" parent="1">
          <mxGeometry width="50" height="50" relative="1" as="geometry">
            <mxPoint x="636" y="768" as="sourcePoint" />
            <mxPoint x="856" y="768" as="targetPoint" />
          </mxGeometry>
        </mxCell>
        <mxCell id="CRXJROGHJ4yO3ktqUOCc-748" value="" style="endArrow=none;html=1;rounded=0;strokeColor=#419805;strokeWidth=3;" edge="1" parent="1">
          <mxGeometry width="50" height="50" relative="1" as="geometry">
            <mxPoint x="876" y="808" as="sourcePoint" />
            <mxPoint x="856" y="768" as="targetPoint" />
          </mxGeometry>
        </mxCell>
        <mxCell id="CRXJROGHJ4yO3ktqUOCc-749" value="" style="endArrow=none;html=1;rounded=0;strokeColor=#419805;strokeWidth=3;" edge="1" parent="1">
          <mxGeometry width="50" height="50" relative="1" as="geometry">
            <mxPoint x="636" y="808" as="sourcePoint" />
            <mxPoint x="856" y="808" as="targetPoint" />
          </mxGeometry>
        </mxCell>
        <mxCell id="CRXJROGHJ4yO3ktqUOCc-750" value="" style="endArrow=none;html=1;rounded=0;strokeColor=#419805;strokeWidth=3;" edge="1" parent="1">
          <mxGeometry width="50" height="50" relative="1" as="geometry">
            <mxPoint x="856" y="808" as="sourcePoint" />
            <mxPoint x="876" y="768" as="targetPoint" />
          </mxGeometry>
        </mxCell>
        <mxCell id="CRXJROGHJ4yO3ktqUOCc-751" value="" style="endArrow=none;html=1;rounded=0;strokeColor=#419805;strokeWidth=3;" edge="1" parent="1">
          <mxGeometry width="50" height="50" relative="1" as="geometry">
            <mxPoint x="876" y="808" as="sourcePoint" />
            <mxPoint x="906" y="808" as="targetPoint" />
          </mxGeometry>
        </mxCell>
        <mxCell id="CRXJROGHJ4yO3ktqUOCc-752" value="" style="endArrow=none;html=1;rounded=0;strokeColor=#419805;strokeWidth=3;" edge="1" parent="1">
          <mxGeometry width="50" height="50" relative="1" as="geometry">
            <mxPoint x="876" y="768" as="sourcePoint" />
            <mxPoint x="906" y="768" as="targetPoint" />
          </mxGeometry>
        </mxCell>
        <mxCell id="CRXJROGHJ4yO3ktqUOCc-753" value="" style="endArrow=none;html=1;rounded=0;strokeColor=#160160;strokeWidth=3;" edge="1" parent="1">
          <mxGeometry width="50" height="50" relative="1" as="geometry">
            <mxPoint x="1000" y="687.58" as="sourcePoint" />
            <mxPoint x="1025" y="688" as="targetPoint" />
          </mxGeometry>
        </mxCell>
        <mxCell id="CRXJROGHJ4yO3ktqUOCc-754" value="" style="endArrow=none;html=1;rounded=0;strokeColor=#160160;strokeWidth=3;" edge="1" parent="1">
          <mxGeometry width="50" height="50" relative="1" as="geometry">
            <mxPoint x="1001" y="647.58" as="sourcePoint" />
            <mxPoint x="1025" y="648" as="targetPoint" />
          </mxGeometry>
        </mxCell>
        <mxCell id="CRXJROGHJ4yO3ktqUOCc-755" value="" style="endArrow=classic;html=1;rounded=0;strokeColor=#0a0a0a;strokeWidth=3;endFill=1;" edge="1" parent="1">
          <mxGeometry width="50" height="50" relative="1" as="geometry">
            <mxPoint x="1015" y="628" as="sourcePoint" />
            <mxPoint x="1035" y="588" as="targetPoint" />
          </mxGeometry>
        </mxCell>
        <mxCell id="CRXJROGHJ4yO3ktqUOCc-756" value="" style="endArrow=none;html=1;rounded=0;strokeColor=#0a0a0a;strokeWidth=3;dashed=1;" edge="1" parent="1">
          <mxGeometry width="50" height="50" relative="1" as="geometry">
            <mxPoint x="1036" y="628" as="sourcePoint" />
            <mxPoint x="1016" y="588" as="targetPoint" />
          </mxGeometry>
        </mxCell>
        <mxCell id="CRXJROGHJ4yO3ktqUOCc-757" value="LBDQS" style="text;html=1;align=center;verticalAlign=middle;whiteSpace=wrap;rounded=0;fontColor=#419805;fontStyle=1" vertex="1" parent="1">
          <mxGeometry x="77" y="718" width="60" height="20" as="geometry" />
        </mxCell>
        <mxCell id="CRXJROGHJ4yO3ktqUOCc-758" value="LBDQ" style="text;html=1;align=center;verticalAlign=middle;whiteSpace=wrap;rounded=0;fontColor=#419805;fontStyle=1" vertex="1" parent="1">
          <mxGeometry x="77" y="778" width="60" height="20" as="geometry" />
        </mxCell>
        <mxCell id="CRXJROGHJ4yO3ktqUOCc-759" value="UI0" style="text;html=1;align=center;verticalAlign=middle;whiteSpace=wrap;rounded=0;fontColor=#0a0a0a;fontStyle=1;strokeColor=none;" vertex="1" parent="1">
          <mxGeometry x="165" y="658" width="40" height="20" as="geometry" />
        </mxCell>
        <mxCell id="CRXJROGHJ4yO3ktqUOCc-760" value="UI1" style="text;html=1;align=center;verticalAlign=middle;whiteSpace=wrap;rounded=0;fontColor=#0a0a0a;fontStyle=1;strokeColor=none;" vertex="1" parent="1">
          <mxGeometry x="225" y="658" width="40" height="20" as="geometry" />
        </mxCell>
        <mxCell id="CRXJROGHJ4yO3ktqUOCc-761" value="UI2" style="text;html=1;align=center;verticalAlign=middle;whiteSpace=wrap;rounded=0;fontColor=#0a0a0a;fontStyle=1;strokeColor=none;fillColor=default;" vertex="1" parent="1">
          <mxGeometry x="285" y="658" width="40" height="20" as="geometry" />
        </mxCell>
        <mxCell id="CRXJROGHJ4yO3ktqUOCc-762" value="UI3" style="text;html=1;align=center;verticalAlign=middle;whiteSpace=wrap;rounded=0;fontColor=#0a0a0a;fontStyle=1;strokeColor=none;" vertex="1" parent="1">
          <mxGeometry x="345" y="658" width="40" height="20" as="geometry" />
        </mxCell>
        <mxCell id="CRXJROGHJ4yO3ktqUOCc-763" value="UI4" style="text;html=1;align=center;verticalAlign=middle;whiteSpace=wrap;rounded=0;fontColor=#0a0a0a;fontStyle=1;strokeColor=none;" vertex="1" parent="1">
          <mxGeometry x="405" y="658" width="40" height="20" as="geometry" />
        </mxCell>
        <mxCell id="CRXJROGHJ4yO3ktqUOCc-764" value="UI5" style="text;html=1;align=center;verticalAlign=middle;whiteSpace=wrap;rounded=0;fontColor=#0a0a0a;fontStyle=1;strokeColor=none;" vertex="1" parent="1">
          <mxGeometry x="465" y="658" width="40" height="20" as="geometry" />
        </mxCell>
        <mxCell id="CRXJROGHJ4yO3ktqUOCc-765" value="UI6" style="text;html=1;align=center;verticalAlign=middle;whiteSpace=wrap;rounded=0;fontColor=#0a0a0a;fontStyle=1;strokeColor=none;" vertex="1" parent="1">
          <mxGeometry x="525" y="658" width="40" height="20" as="geometry" />
        </mxCell>
        <mxCell id="CRXJROGHJ4yO3ktqUOCc-766" value="UI7" style="text;html=1;align=center;verticalAlign=middle;whiteSpace=wrap;rounded=0;fontColor=#0a0a0a;fontStyle=1;strokeColor=none;" vertex="1" parent="1">
          <mxGeometry x="585" y="658" width="40" height="20" as="geometry" />
        </mxCell>
        <mxCell id="CRXJROGHJ4yO3ktqUOCc-767" value="UI0" style="text;html=1;align=center;verticalAlign=middle;whiteSpace=wrap;rounded=0;fontColor=#0a0a0a;fontStyle=1;strokeColor=none;" vertex="1" parent="1">
          <mxGeometry x="645" y="658" width="40" height="20" as="geometry" />
        </mxCell>
        <mxCell id="CRXJROGHJ4yO3ktqUOCc-768" value="UI1" style="text;html=1;align=center;verticalAlign=middle;whiteSpace=wrap;rounded=0;fontColor=#0a0a0a;fontStyle=1;strokeColor=none;" vertex="1" parent="1">
          <mxGeometry x="705" y="658" width="40" height="20" as="geometry" />
        </mxCell>
        <mxCell id="CRXJROGHJ4yO3ktqUOCc-769" value="UI2" style="text;html=1;align=center;verticalAlign=middle;whiteSpace=wrap;rounded=0;fontColor=#0a0a0a;fontStyle=1;strokeColor=none;fillColor=default;" vertex="1" parent="1">
          <mxGeometry x="765" y="658" width="40" height="20" as="geometry" />
        </mxCell>
        <mxCell id="CRXJROGHJ4yO3ktqUOCc-770" value="UI3" style="text;html=1;align=center;verticalAlign=middle;whiteSpace=wrap;rounded=0;fontColor=#0a0a0a;fontStyle=1;strokeColor=none;fillColor=default;" vertex="1" parent="1">
          <mxGeometry x="825" y="658" width="40" height="20" as="geometry" />
        </mxCell>
        <mxCell id="CRXJROGHJ4yO3ktqUOCc-771" value="UI4" style="text;html=1;align=center;verticalAlign=middle;whiteSpace=wrap;rounded=0;fontColor=#0a0a0a;fontStyle=1;strokeColor=none;fillColor=default;" vertex="1" parent="1">
          <mxGeometry x="885" y="658" width="40" height="20" as="geometry" />
        </mxCell>
        <mxCell id="CRXJROGHJ4yO3ktqUOCc-772" value="UI5" style="text;html=1;align=center;verticalAlign=middle;whiteSpace=wrap;rounded=0;fontColor=#0a0a0a;fontStyle=1;strokeColor=none;fillColor=default;" vertex="1" parent="1">
          <mxGeometry x="945" y="658" width="40" height="20" as="geometry" />
        </mxCell>
        <mxCell id="CRXJROGHJ4yO3ktqUOCc-773" value="UI1" style="text;html=1;align=center;verticalAlign=middle;whiteSpace=wrap;rounded=0;fontColor=#0a0a0a;fontStyle=1;strokeColor=none;" vertex="1" parent="1">
          <mxGeometry x="486" y="778" width="40" height="20" as="geometry" />
        </mxCell>
        <mxCell id="CRXJROGHJ4yO3ktqUOCc-774" value="UI5" style="text;html=1;align=center;verticalAlign=middle;whiteSpace=wrap;rounded=0;fontColor=#0a0a0a;fontStyle=1;strokeColor=none;" vertex="1" parent="1">
          <mxGeometry x="726" y="778" width="40" height="20" as="geometry" />
        </mxCell>
        <mxCell id="CRXJROGHJ4yO3ktqUOCc-775" value="" style="endArrow=none;html=1;rounded=0;strokeWidth=3;" edge="1" parent="1">
          <mxGeometry width="50" height="50" relative="1" as="geometry">
            <mxPoint x="244" y="758" as="sourcePoint" />
            <mxPoint x="243.5" y="698" as="targetPoint" />
          </mxGeometry>
        </mxCell>
        <mxCell id="CRXJROGHJ4yO3ktqUOCc-776" value="" style="endArrow=none;html=1;rounded=0;strokeWidth=3;strokeColor=#020202;" edge="1" parent="1">
          <mxGeometry width="50" height="50" relative="1" as="geometry">
            <mxPoint x="385" y="758" as="sourcePoint" />
            <mxPoint x="385" y="698" as="targetPoint" />
          </mxGeometry>
        </mxCell>
        <mxCell id="CRXJROGHJ4yO3ktqUOCc-777" value="" style="endArrow=classic;startArrow=classic;html=1;rounded=0;" edge="1" parent="1">
          <mxGeometry width="50" height="50" relative="1" as="geometry">
            <mxPoint x="245" y="727.6600000000001" as="sourcePoint" />
            <mxPoint x="385" y="727.6600000000001" as="targetPoint" />
          </mxGeometry>
        </mxCell>
        <mxCell id="CRXJROGHJ4yO3ktqUOCc-779" value="tLBDLY" style="text;html=1;align=center;verticalAlign=middle;whiteSpace=wrap;rounded=0;fontColor=#0a0a0a;fontStyle=1;strokeColor=none;" vertex="1" parent="1">
          <mxGeometry x="285" y="708" width="40" height="20" as="geometry" />
        </mxCell>
        <mxCell id="CRXJROGHJ4yO3ktqUOCc-782" value="" style="endArrow=none;dashed=1;html=1;rounded=0;" edge="1" parent="1">
          <mxGeometry width="50" height="50" relative="1" as="geometry">
            <mxPoint x="244.66" y="860" as="sourcePoint" />
            <mxPoint x="244.66" y="680" as="targetPoint" />
          </mxGeometry>
        </mxCell>
        <mxCell id="CRXJROGHJ4yO3ktqUOCc-783" value="LBDQS and LBDQ with Phase A (MR53 OP[6:5]=00)" style="text;html=1;align=center;verticalAlign=middle;whiteSpace=wrap;rounded=0;fontColor=#0a0a0a;fontStyle=1;strokeColor=none;fontSize=14;fillColor=default;" vertex="1" parent="1">
          <mxGeometry x="80" y="490" width="970" height="20" as="geometry" />
        </mxCell>
        <mxCell id="CRXJROGHJ4yO3ktqUOCc-784" value="LBDQS and LBDQ with Phase B (MR53 OP[6:5]=01)" style="text;html=1;align=center;verticalAlign=middle;whiteSpace=wrap;rounded=0;fontColor=#0a0a0a;fontStyle=1;strokeColor=none;fontSize=14;fillColor=default;" vertex="1" parent="1">
          <mxGeometry x="77" y="830" width="973" height="20" as="geometry" />
        </mxCell>
      </root>
    </mxGraphModel>
  </diagram>
</mxfile>
